<?xml version="1.0" encoding="utf-8"?>
<!-- Generator: Adobe Illustrator 23.0.3, SVG Export Plug-In . SVG Version: 6.00 Build 0)  -->
<svg version="1.1" id="圖層_1" xmlns="http://www.w3.org/2000/svg" xmlns:xlink="http://www.w3.org/1999/xlink" x="0px" y="0px"
	 viewBox="0 0 135.44 135.44" style="enable-background:new 0 0 135.44 135.44;" xml:space="preserve">
<style type="text/css">
	.st0{fill:#FFE5B5;}
	.st1{clip-path:url(#SVGID_2_);fill:#FFE5B5;}
	.st2{opacity:0.7;fill:#41220E;}
	.st3{fill:#562B10;}
	.st4{fill:none;}
	.st5{fill:#E99F66;}
	.st6{fill:none;stroke:#000000;stroke-width:2;stroke-miterlimit:10;}
	.st7{opacity:0.4;fill:#41220E;}
	.st8{opacity:0.2;fill:#41220E;}
	.st9{opacity:0.1;fill:#41220E;}
	.st10{opacity:0.3;fill:#41220E;}
	.st11{fill:none;stroke:#562B10;stroke-width:2.5734;stroke-miterlimit:10;}
	.st12{fill:#41220E;}
	.st13{fill:#FFFFFF;}
	.st14{fill:#030104;}
	.st15{fill:#47598D;}
	.st16{opacity:0.5;fill:#C7E5F6;}
	.st17{fill:#B7DDC8;stroke:#562B10;stroke-width:3.0391;stroke-miterlimit:10;}
	.st18{opacity:0.5;fill:#FFE5B5;}
	.st19{clip-path:url(#SVGID_24_);}
	.st20{fill:#E99F66;stroke:#562B10;stroke-width:2.016;stroke-miterlimit:10;}
	.st21{fill:#B7DD9A;stroke:#562B10;stroke-width:3.0391;stroke-miterlimit:10;}
	.st22{fill:url(#SVGID_27_);}
	.st23{fill:url(#SVGID_28_);}
	.st24{fill:url(#SVGID_29_);}
	.st25{fill:url(#SVGID_30_);}
	.st26{fill:url(#SVGID_31_);}
	.st27{fill:url(#SVGID_32_);}
	.st28{fill:url(#SVGID_33_);}
	.st29{fill:url(#SVGID_34_);}
	.st30{fill:#7F1116;}
	.st31{fill:#70141B;}
	.st32{fill:#B0242B;}
	.st33{fill:url(#SVGID_35_);}
	.st34{fill:url(#SVGID_36_);}
	.st35{fill:url(#SVGID_37_);}
	.st36{fill:url(#SVGID_38_);}
	.st37{fill:url(#SVGID_39_);}
	.st38{fill:url(#SVGID_40_);}
	.st39{fill:url(#SVGID_41_);}
	.st40{fill:url(#SVGID_42_);}
</style>
<g>
	<circle class="st11" cx="67.72" cy="67.72" r="66.43"/>
	<g id="XMLID_9_">
		<g id="XMLID_10_">
			<path id="XMLID_16_" class="st3" d="M105.65,34.98H85.3c-0.88,0-1.6,0.72-1.6,1.6s0.72,1.6,1.6,1.6h18.75v3.2H74.1v-2.61
				c0-3-2.44-5.44-5.44-5.44c-0.5,0-0.98,0.07-1.44,0.19c-0.64-2.3-2.75-3.99-5.24-3.99h-7.22c-3,0-5.44,2.44-5.44,5.44H26.9
				c-0.88,0-1.6,0.72-1.6,1.6v6.4c0,0.88,0.72,1.6,1.6,1.6h6.28v0.58c0,0.88,0.72,1.6,1.6,1.6c0.88,0,1.6-0.72,1.6-1.6v-0.58h12.92
				v3.7c0,1.5,0.61,2.86,1.59,3.84c-0.98,0.98-1.59,2.34-1.59,3.84v11.52c0,1.52,0.62,2.89,1.63,3.88c-1,0.99-1.63,2.36-1.63,3.88
				v11.52c0,1.52,0.62,2.89,1.63,3.88c-1,0.99-1.63,2.36-1.63,3.88v11.52c0,3,2.44,5.44,5.44,5.44c2.67,0,4.93-1.91,5.37-4.54
				c0.15-0.87-0.44-1.7-1.31-1.84c-0.87-0.15-1.7,0.44-1.84,1.31c-0.18,1.08-1.11,1.87-2.21,1.87c-1.24,0-2.24-1.01-2.24-2.24V94.51
				c0-1.24,1.01-2.24,2.24-2.24c1.1,0,2.03,0.78,2.21,1.87c0.15,0.87,0.97,1.46,1.84,1.31c0.87-0.15,1.46-0.97,1.31-1.84
				c-0.2-1.17-0.75-2.2-1.55-2.98c1-0.99,1.62-2.36,1.62-3.87V75.23c0-1.52-0.62-2.89-1.63-3.88c1-0.99,1.63-2.36,1.63-3.88V55.96
				c0-1.5-0.61-2.86-1.59-3.84c0.98-0.98,1.59-2.34,1.59-3.84v-3.7h3.02v5.71c0,1.51,0.62,2.88,1.62,3.86
				c-1,0.99-1.62,2.35-1.62,3.86v11.52c0,3,2.44,5.44,5.44,5.44c3,0,5.44-2.44,5.44-5.44V58.02c0-1.51-0.62-2.88-1.62-3.86
				c1-0.99,1.62-2.35,1.62-3.86v-5.71h17.15v1.53c0,0.88,0.72,1.6,1.6,1.6c0.88,0,1.6-0.72,1.6-1.6v-1.53h11.2
				c0.88,0,1.6-0.72,1.6-1.6v-6.4C107.25,35.69,106.53,34.98,105.65,34.98z M70.9,38.77v11.52c0,1.24-1.01,2.24-2.24,2.24
				c-1.24,0-2.24-1.01-2.24-2.24V38.77c0-1.24,1.01-2.24,2.24-2.24C69.89,36.53,70.9,37.53,70.9,38.77z M54.75,32.74h7.22
				c1.24,0,2.24,1.01,2.24,2.24c0,1.24-1.01,2.24-2.24,2.24h-7.22c-1.24,0-2.24-1.01-2.24-2.24C52.51,33.74,53.52,32.74,54.75,32.74
				z M56.99,55.96v11.52c0,1.24-1.01,2.24-2.24,2.24s-2.24-1.01-2.24-2.24V55.96c0-1.24,1.01-2.24,2.24-2.24
				S56.99,54.72,56.99,55.96z M54.75,72.99c1.24,0,2.24,1.01,2.24,2.24v11.52c0,1.24-1.01,2.24-2.24,2.24s-2.24-1.01-2.24-2.24
				V75.23C52.51,74,53.52,72.99,54.75,72.99z M56.99,48.27c0,1.24-1.01,2.24-2.24,2.24s-2.24-1.01-2.24-2.24v-3.7h4.48V48.27z
				 M28.5,41.38v-3.2h21.85c0.99,1.36,2.59,2.24,4.4,2.24h7.22c0.43,0,0.84-0.05,1.24-0.14v1.1H28.5z M70.9,69.55
				c0,1.24-1.01,2.24-2.24,2.24c-1.24,0-2.24-1.01-2.24-2.24V58.02c0-1.24,1.01-2.24,2.24-2.24c1.24,0,2.24,1.01,2.24,2.24V69.55z"
				/>
			<path id="XMLID_15_" class="st3" d="M97.31,58.12c0-1.62-1.27-2.95-2.87-3.04v-2.02c0-0.88-0.72-1.6-1.6-1.6
				c-0.88,0-1.6,0.72-1.6,1.6v2.02c-1.6,0.1-2.87,1.42-2.87,3.04v8.23c-6.41,7.17-9.94,16.38-9.94,26.02v4c0,0,0,0.01,0,0.01
				c0,4.88,6.33,8.7,14.4,8.7c8.08,0,14.4-3.82,14.4-8.7l0,0v-4c0-9.63-3.52-18.85-9.94-26.02V58.12z M91.58,65.37v-7.1h2.53v7.1
				H91.58z M92.84,101.88c-6.6,0-11.2-2.9-11.2-5.5c0,0,0,0,0,0v0c0-2.6,4.6-5.5,11.2-5.5c6.6,0,11.2,2.9,11.2,5.5
				S99.45,101.88,92.84,101.88z M104.01,90.82c-2.62-1.93-6.62-3.15-11.17-3.15c-4.55,0-8.55,1.21-11.17,3.15
				c0.35-8.24,3.52-16.06,9.01-22.25H95C100.49,74.75,103.66,82.58,104.01,90.82z"/>
			<path id="XMLID_14_" class="st3" d="M93.48,93.55h-1.17c-0.88,0-1.6,0.72-1.6,1.6c0,0.88,0.72,1.6,1.6,1.6h1.17
				c0.88,0,1.6-0.72,1.6-1.6C95.08,94.27,94.37,93.55,93.48,93.55z"/>
			<path id="XMLID_13_" class="st3" d="M36.39,52.72v-1.58c0-0.88-0.72-1.6-1.6-1.6c-0.88,0-1.6,0.72-1.6,1.6v1.58
				c-4.47,0.76-7.88,4.66-7.88,9.34v27.05c0,5.23,4.25,9.48,9.48,9.48s9.48-4.25,9.48-9.48V62.06
				C44.27,57.38,40.86,53.48,36.39,52.72z M28.5,87.51V81.7h12.56v5.81H28.5z M41.07,63.66v5.81H28.5v-5.81H41.07z M28.5,72.68
				h12.56v5.81H28.5V72.68z M34.79,55.78c2.91,0,5.36,1.99,6.07,4.68H28.71C29.42,57.77,31.88,55.78,34.79,55.78z M34.79,95.39
				c-2.91,0-5.36-1.99-6.07-4.68h12.15C40.15,93.4,37.7,95.39,34.79,95.39z"/>
			<path id="XMLID_12_" class="st3" d="M78.9,38.18c0.42,0,0.83-0.17,1.13-0.47c0.3-0.3,0.47-0.71,0.47-1.13s-0.17-0.83-0.47-1.13
				c-0.3-0.3-0.71-0.47-1.13-0.47c-0.42,0-0.84,0.17-1.13,0.47c-0.3,0.3-0.47,0.71-0.47,1.13s0.17,0.83,0.47,1.13
				C78.06,38.01,78.48,38.18,78.9,38.18z"/>
			<path id="XMLID_11_" class="st3" d="M58.59,98.67c-0.42,0-0.83,0.17-1.13,0.47c-0.3,0.3-0.47,0.71-0.47,1.13s0.17,0.83,0.47,1.13
				c0.3,0.3,0.71,0.47,1.13,0.47s0.83-0.17,1.13-0.47c0.3-0.3,0.47-0.71,0.47-1.13s-0.17-0.83-0.47-1.13
				C59.43,98.85,59.01,98.67,58.59,98.67z"/>
		</g>
	</g>
</g>
</svg>
