<?xml version="1.0" encoding="utf-8"?>
<!-- Generator: Adobe Illustrator 23.0.3, SVG Export Plug-In . SVG Version: 6.00 Build 0)  -->
<svg version="1.1" id="圖層_1" xmlns="http://www.w3.org/2000/svg" xmlns:xlink="http://www.w3.org/1999/xlink" x="0px" y="0px"
	 viewBox="0 0 135.44 135.44" style="enable-background:new 0 0 135.44 135.44;" xml:space="preserve">
<style type="text/css">
	.st0{fill:#FFE5B5;}
	.st1{clip-path:url(#SVGID_2_);fill:#FFE5B5;}
	.st2{opacity:0.7;fill:#41220E;}
	.st3{fill:#562B10;}
	.st4{fill:none;}
	.st5{fill:#E99F66;}
	.st6{fill:none;stroke:#000000;stroke-width:2;stroke-miterlimit:10;}
	.st7{opacity:0.4;fill:#41220E;}
	.st8{opacity:0.2;fill:#41220E;}
	.st9{opacity:0.1;fill:#41220E;}
	.st10{opacity:0.3;fill:#41220E;}
	.st11{fill:none;stroke:#562B10;stroke-width:2.5734;stroke-miterlimit:10;}
	.st12{fill:#41220E;}
	.st13{fill:#FFFFFF;}
	.st14{fill:#030104;}
	.st15{fill:#47598D;}
	.st16{opacity:0.5;fill:#C7E5F6;}
	.st17{fill:#B7DDC8;stroke:#562B10;stroke-width:3.0391;stroke-miterlimit:10;}
	.st18{opacity:0.5;fill:#FFE5B5;}
	.st19{clip-path:url(#SVGID_24_);}
	.st20{fill:#E99F66;stroke:#562B10;stroke-width:2.016;stroke-miterlimit:10;}
	.st21{fill:#B7DD9A;stroke:#562B10;stroke-width:3.0391;stroke-miterlimit:10;}
	.st22{fill:url(#SVGID_27_);}
	.st23{fill:url(#SVGID_28_);}
	.st24{fill:url(#SVGID_29_);}
	.st25{fill:url(#SVGID_30_);}
	.st26{fill:url(#SVGID_31_);}
	.st27{fill:url(#SVGID_32_);}
	.st28{fill:url(#SVGID_33_);}
	.st29{fill:url(#SVGID_34_);}
	.st30{fill:#7F1116;}
	.st31{fill:#70141B;}
	.st32{fill:#B0242B;}
	.st33{fill:url(#SVGID_35_);}
	.st34{fill:url(#SVGID_36_);}
	.st35{fill:url(#SVGID_37_);}
	.st36{fill:url(#SVGID_38_);}
	.st37{fill:url(#SVGID_39_);}
	.st38{fill:url(#SVGID_40_);}
	.st39{fill:url(#SVGID_41_);}
	.st40{fill:url(#SVGID_42_);}
</style>
<g>
	<circle class="st11" cx="67.72" cy="67.72" r="66.43"/>
	<g>
		<path class="st3" d="M44,72.46l2.52-2.09c-1.19-1.44-2.8-2.23-4.53-2.23c-1.73,0-3.34,0.79-4.54,2.23l2.52,2.09
			C41.09,71.11,42.88,71.11,44,72.46z"/>
		<path class="st3" d="M66.66,61.97c-15.84,0-39.4,2.86-39.4,10.75v0.22c0,21.73,17.67,39.4,39.4,39.4c21.73,0,39.4-17.68,39.4-39.4
			v-0.22C106.06,64.83,82.49,61.97,66.66,61.97z M66.66,65.24c2.58,0,5,0.07,7.32,0.17c-0.8,0.38-1.52,0.94-2.14,1.68l2.52,2.09
			c1.12-1.35,2.91-1.35,4.03,0l2.52-2.09c-0.46-0.56-1-0.98-1.57-1.33c15.43,1.32,23.45,4.87,23.45,6.96
			c0,2.61-12.41,7.48-36.13,7.48c-13.49,0-23.31-1.58-29.28-3.42c1.08-0.7,2.44-0.52,3.35,0.59l2.52-2.09
			c-1.19-1.44-2.8-2.23-4.53-2.23c-1.73,0-3.34,0.79-4.54,2.23l0.81,0.67c-2.94-1.15-4.46-2.32-4.46-3.23
			C30.53,70.11,42.94,65.24,66.66,65.24z M66.66,109.07c-18.37,0-33.57-13.79-35.83-31.55c7.19,4.29,23.75,5.96,35.83,5.96
			c12.08,0,28.64-1.67,35.83-5.96C100.23,95.28,85.03,109.07,66.66,109.07z"/>
		<path class="st3" d="M75.11,76.92l2.52,2.09c1.12-1.35,2.91-1.35,4.03,0l2.52-2.09c-1.19-1.44-2.8-2.23-4.54-2.23
			C77.91,74.69,76.3,75.48,75.11,76.92z"/>
		<path class="st3" d="M84.93,75.28l2.52,2.09c1.12-1.35,2.91-1.35,4.03,0L94,75.28c-1.19-1.44-2.8-2.23-4.53-2.23
			C87.73,73.05,86.12,73.84,84.93,75.28z"/>
		<path class="st3" d="M98.03,74.1l2.52-2.09c-1.19-1.44-2.8-2.23-4.53-2.23c-1.73,0-3.34,0.79-4.54,2.23L94,74.1
			C95.12,72.75,96.91,72.75,98.03,74.1z"/>
		<path class="st3" d="M88.21,72.46l2.52-2.09c-1.19-1.44-2.8-2.23-4.53-2.23c-1.73,0-3.34,0.79-4.54,2.23l2.52,2.09
			C85.29,71.11,87.09,71.11,88.21,72.46z"/>
		<path class="st3" d="M78.38,74.1l2.52-2.09c-1.19-1.44-2.8-2.23-4.54-2.23c-1.73,0-3.34,0.79-4.53,2.23l2.52,2.09
			C75.47,72.75,77.26,72.75,78.38,74.1z"/>
		<path class="st3" d="M68.56,72.46l2.52-2.09c-1.19-1.44-2.8-2.23-4.53-2.23c-1.73,0-3.34,0.79-4.54,2.23l2.52,2.09
			C65.65,71.11,67.44,71.11,68.56,72.46z"/>
		<path class="st3" d="M63.65,76.92l2.52,2.09c1.12-1.35,2.91-1.35,4.03,0l2.52-2.09c-1.19-1.44-2.8-2.23-4.54-2.23
			C66.45,74.69,64.84,75.48,63.65,76.92z"/>
		<path class="st3" d="M53.83,76.92l2.52,2.09c1.12-1.35,2.91-1.35,4.03,0l2.52-2.09c-1.19-1.44-2.8-2.23-4.53-2.23
			C56.63,74.69,55.02,75.48,53.83,76.92z"/>
		<path class="st3" d="M48.16,77.37c1.12-1.35,2.91-1.35,4.03,0l2.52-2.09c-1.19-1.44-2.8-2.23-4.54-2.23s-3.34,0.79-4.54,2.23
			L48.16,77.37z"/>
		<path class="st3" d="M57.1,72.46l2.52-2.09c-1.19-1.44-2.8-2.23-4.53-2.23c-1.73,0-3.34,0.79-4.54,2.23l2.52,2.09
			C54.19,71.11,55.98,71.11,57.1,72.46z"/>
		<path class="st3" d="M77.57,32.05c-0.37-0.92-0.96-1.76-1.79-2.45c-0.37-0.31-0.64-0.67-0.82-1.05l39.31-5.9l-0.49-3.24
			l-38.34,5.75l-1.76-2.12c-0.9,0.74-1.51,1.66-1.87,2.66l-3.15,0.47c0.16-0.22,0.33-0.43,0.56-0.61l-2.09-2.52
			c-1.2,0.99-1.91,2.28-2.13,3.68l-3.33,0.5c0.1-0.61,0.44-1.19,1-1.66l-2.09-2.52c-1.44,1.19-2.23,2.8-2.23,4.54
			c0,0.05,0.01,0.09,0.02,0.14l-3.19,0.48c-0.06-0.2-0.1-0.41-0.1-0.62c0-0.74,0.37-1.46,1.04-2.01l-2.09-2.52
			c-1.44,1.19-2.23,2.8-2.23,4.53c0,0.38,0.05,0.75,0.13,1.11l-3.64,0.55l0.24,1.62l-0.16,1.63l6.46,0.63
			c0.16,0.32,0.25,0.67,0.25,1.02c0,0.74-0.37,1.46-1.04,2.01c-1.44,1.19-2.23,2.8-2.23,4.54c0,1.73,0.79,3.34,2.23,4.53
			c0.67,0.56,1.04,1.27,1.04,2.01c0,0.74-0.37,1.46-1.04,2.01c-1.44,1.19-2.23,2.8-2.23,4.54c0,1.73,0.79,3.34,2.23,4.53l2.09-2.52
			c-0.67-0.56-1.04-1.27-1.04-2.01c0-0.74,0.37-1.46,1.04-2.01c1.44-1.19,2.23-2.8,2.23-4.53c0-1.73-0.79-3.34-2.23-4.54
			c-0.67-0.56-1.04-1.27-1.04-2.01c0-0.74,0.37-1.46,1.04-2.01c1.44-1.19,2.23-2.8,2.23-4.53c0-0.23-0.05-0.45-0.08-0.68l3.31,0.32
			c0.02,0.12,0.04,0.24,0.04,0.36c0,0.74-0.37,1.46-1.04,2.01c-1.44,1.19-2.23,2.8-2.23,4.54c0,1.73,0.79,3.34,2.23,4.53
			c0.67,0.56,1.04,1.27,1.04,2.01c0,0.74-0.37,1.46-1.04,2.01c-1.44,1.19-2.23,2.8-2.23,4.54c0,1.73,0.79,3.34,2.23,4.53l2.09-2.52
			c-0.67-0.56-1.04-1.27-1.04-2.01c0-0.74,0.37-1.46,1.04-2.01c1.44-1.19,2.23-2.8,2.23-4.53c0-1.73-0.79-3.34-2.23-4.54
			c-0.67-0.56-1.04-1.27-1.04-2.01c0-0.74,0.37-1.46,1.04-2.01c1.44-1.19,2.23-2.8,2.23-4.53c0-0.01,0-0.02,0-0.03l3.24,0.32
			c-0.08,0.64-0.42,1.24-1.01,1.73c-1.44,1.19-2.23,2.8-2.23,4.54c0,1.73,0.79,3.34,2.23,4.53c0.67,0.56,1.04,1.27,1.04,2.01
			c0,0.74-0.37,1.46-1.04,2.01c-1.44,1.19-2.23,2.8-2.23,4.54c0,1.73,0.79,3.34,2.23,4.53l2.09-2.52c-0.67-0.56-1.04-1.27-1.04-2.01
			c0-0.74,0.37-1.46,1.04-2.01c1.44-1.19,2.23-2.8,2.23-4.53c0-1.73-0.79-3.34-2.23-4.54c-0.67-0.56-1.04-1.27-1.04-2.01
			c0-0.74,0.37-1.46,1.04-2.01c1.27-1.05,2-2.43,2.16-3.93l3.14,0.31c-0.17,0.4-0.45,0.78-0.84,1.11c-1.44,1.19-2.23,2.8-2.23,4.54
			c0,1.73,0.79,3.34,2.23,4.54c0.67,0.56,1.04,1.27,1.04,2.01s-0.37,1.46-1.04,2.01c-1.44,1.19-2.23,2.8-2.23,4.54
			c0,1.73,0.79,3.34,2.23,4.53l2.09-2.52c-0.67-0.56-1.04-1.27-1.04-2.01c0-0.74,0.37-1.46,1.04-2.01c1.44-1.19,2.23-2.8,2.23-4.53
			c0-1.73-0.79-3.34-2.23-4.54c-0.67-0.56-1.04-1.27-1.04-2.01s0.37-1.46,1.04-2.01c1.09-0.9,1.8-2.05,2.09-3.3l37.64,3.67
			l0.32-3.26L77.57,32.05z M73.19,31.62l-2.5-0.24c-0.37-0.65-0.85-1.26-1.47-1.78c-0.06-0.05-0.11-0.11-0.16-0.16l2.61-0.39
			C71.93,30,72.45,30.87,73.19,31.62z M63.36,30.29l2.09-0.31c0.16,0.33,0.36,0.64,0.58,0.94l-2.32-0.23
			C63.61,30.56,63.48,30.43,63.36,30.29z"/>
	</g>
</g>
</svg>
