<?xml version="1.0" encoding="utf-8"?>
<!-- Generator: Adobe Illustrator 23.0.3, SVG Export Plug-In . SVG Version: 6.00 Build 0)  -->
<svg version="1.1" id="圖層_1" xmlns="http://www.w3.org/2000/svg" xmlns:xlink="http://www.w3.org/1999/xlink" x="0px" y="0px"
	 viewBox="0 0 135.44 135.44" style="enable-background:new 0 0 135.44 135.44;" xml:space="preserve">
<style type="text/css">
	.st0{fill:#FFE5B5;}
	.st1{clip-path:url(#SVGID_2_);fill:#FFE5B5;}
	.st2{opacity:0.7;fill:#41220E;}
	.st3{fill:#562B10;}
	.st4{fill:none;}
	.st5{fill:#E99F66;}
	.st6{fill:none;stroke:#000000;stroke-width:2;stroke-miterlimit:10;}
	.st7{opacity:0.4;fill:#41220E;}
	.st8{opacity:0.2;fill:#41220E;}
	.st9{opacity:0.1;fill:#41220E;}
	.st10{opacity:0.3;fill:#41220E;}
	.st11{fill:none;stroke:#562B10;stroke-width:2.5734;stroke-miterlimit:10;}
	.st12{fill:#41220E;}
	.st13{fill:#FFFFFF;}
	.st14{fill:#030104;}
	.st15{fill:#47598D;}
	.st16{opacity:0.5;fill:#C7E5F6;}
	.st17{fill:#B7DDC8;stroke:#562B10;stroke-width:3.0391;stroke-miterlimit:10;}
	.st18{opacity:0.5;fill:#FFE5B5;}
	.st19{clip-path:url(#SVGID_24_);}
	.st20{fill:#E99F66;stroke:#562B10;stroke-width:2.016;stroke-miterlimit:10;}
	.st21{fill:#B7DD9A;stroke:#562B10;stroke-width:3.0391;stroke-miterlimit:10;}
	.st22{fill:url(#SVGID_27_);}
	.st23{fill:url(#SVGID_28_);}
	.st24{fill:url(#SVGID_29_);}
	.st25{fill:url(#SVGID_30_);}
	.st26{fill:url(#SVGID_31_);}
	.st27{fill:url(#SVGID_32_);}
	.st28{fill:url(#SVGID_33_);}
	.st29{fill:url(#SVGID_34_);}
	.st30{fill:#7F1116;}
	.st31{fill:#70141B;}
	.st32{fill:#B0242B;}
	.st33{fill:url(#SVGID_35_);}
	.st34{fill:url(#SVGID_36_);}
	.st35{fill:url(#SVGID_37_);}
	.st36{fill:url(#SVGID_38_);}
	.st37{fill:url(#SVGID_39_);}
	.st38{fill:url(#SVGID_40_);}
	.st39{fill:url(#SVGID_41_);}
	.st40{fill:url(#SVGID_42_);}
</style>
<g>
	<circle class="st11" cx="67.72" cy="67.72" r="66.43"/>
	<g>
		<g>
			<g>
				<path class="st3" d="M105.09,75.89c-1.42-7.97-7.45-14.93-15.37-17.75c-0.01,0-0.27-0.09-0.28-0.1
					c-6.66-2.28-11.79-7.41-14.17-14.34c-2.8-7.86-9.76-13.89-17.75-15.37c-7.65-1.42-22.86,0.86-25.21,3.2
					c-2.35,2.33-4.62,17.54-3.2,25.21c1.48,7.98,7.51,14.94,15.65,17.83c6.66,2.28,11.79,7.41,14.17,14.34
					c2.84,7.97,9.63,13.85,17.74,15.36c1.7,0.32,3.7,0.46,5.82,0.46c8,0,17.68-1.97,19.38-3.67
					C104.18,98.77,106.46,83.58,105.09,75.89z M77.25,101.13c-6.88-1.28-12.89-6.5-15.39-13.52c-2.61-7.59-8.46-13.44-16.3-16.13
					c-6.8-2.42-12.02-8.42-13.29-15.29c-1.24-6.74,0.65-17.77,1.83-21.3c1.87,0.73,4.85,1.21,9.35,1.89c2.23,0.34,4.66,0.7,7.1,1.15
					c6.88,1.27,12.88,6.48,15.39,13.53c2.61,7.59,8.46,13.44,16.3,16.13C89.08,70,94.3,76,95.52,82.86
					c0.46,2.56,0.66,4.43,0.83,6.08c0.34,3.19,0.61,5.61,2.37,10.25C95.3,100.42,84.05,102.4,77.25,101.13z M100.74,95.21
					c-0.76-2.54-0.96-4.32-1.21-6.61c-0.18-1.7-0.39-3.63-0.86-6.31c-1.42-7.96-7.45-14.93-15.64-17.84
					c-6.65-2.28-11.78-7.41-14.16-14.33c-2.8-7.86-9.76-13.88-17.74-15.36c-2.47-0.46-4.94-0.83-7.2-1.17
					C42.07,33.32,40,33,38.27,32.67c3.47-0.79,8.74-1.57,13.49-1.57c1.86,0,3.65,0.12,5.2,0.41c6.88,1.27,12.88,6.49,15.39,13.53
					c2.61,7.59,8.46,13.44,16.05,16.05l0.24,0.08l0,0c6.85,2.43,12.06,8.43,13.29,15.29C102.91,82.02,101.81,90.43,100.74,95.21z"/>
				<path class="st3" d="M78.78,92.01c-2.76-0.87-4.84-2.92-5.32-5.2c-0.18-0.87-1.04-1.42-1.89-1.24
					c-0.87,0.18-1.42,1.03-1.24,1.89c0.72,3.45,3.59,6.37,7.49,7.6c0.16,0.05,0.32,0.08,0.48,0.08c0.68,0,1.31-0.44,1.53-1.12
					C80.09,93.17,79.62,92.28,78.78,92.01z"/>
				<path class="st3" d="M75.09,79.13c0.68,0,1.31-0.44,1.53-1.12c0.27-0.84-0.2-1.74-1.04-2.01c-2.76-0.87-4.84-2.92-5.32-5.2
					c-0.18-0.87-1.04-1.42-1.89-1.24c-0.87,0.18-1.42,1.03-1.24,1.89c0.72,3.45,3.59,6.37,7.49,7.6
					C74.77,79.1,74.93,79.13,75.09,79.13z"/>
				<path class="st3" d="M56.37,63.19c-2.76-0.87-4.84-2.92-5.32-5.2c-0.18-0.87-1.03-1.42-1.89-1.24
					c-0.87,0.18-1.42,1.03-1.24,1.89c0.72,3.45,3.59,6.37,7.49,7.6c0.16,0.05,0.32,0.08,0.48,0.08c0.68,0,1.31-0.44,1.53-1.12
					C57.68,64.36,57.21,63.46,56.37,63.19z"/>
				<path class="st3" d="M53.16,43.99c-0.85-0.27-1.74,0.2-2.01,1.04c-0.27,0.84,0.2,1.74,1.04,2.01c2.76,0.87,4.84,2.92,5.32,5.2
					c0.16,0.76,0.82,1.28,1.57,1.28c0.11,0,0.22-0.01,0.33-0.03c0.87-0.18,1.42-1.03,1.24-1.89C59.93,48.13,57.06,45.22,53.16,43.99
					z"/>
				<path class="st3" d="M88.38,82.4c-0.85-0.27-1.74,0.2-2.01,1.04c-0.27,0.84,0.2,1.74,1.04,2.01c1.11,0.35,1.94,1.14,2.12,2
					c0.16,0.76,0.82,1.28,1.57,1.28c0.11,0,0.22-0.01,0.33-0.03c0.87-0.18,1.42-1.03,1.24-1.89C92.25,84.8,90.61,83.11,88.38,82.4z"
					/>
				<path class="st3" d="M40.36,50.39c-1.11-0.35-1.94-1.14-2.12-2c-0.18-0.87-1.03-1.42-1.89-1.24c-0.87,0.18-1.42,1.03-1.24,1.89
					c0.42,2.01,2.06,3.7,4.29,4.4c0.16,0.05,0.32,0.08,0.48,0.08c0.68,0,1.31-0.44,1.53-1.12C41.67,51.55,41.2,50.65,40.36,50.39z"
					/>
			</g>
		</g>
	</g>
</g>
</svg>
