<?xml version="1.0" encoding="utf-8"?>
<!-- Generator: Adobe Illustrator 23.0.3, SVG Export Plug-In . SVG Version: 6.00 Build 0)  -->
<svg version="1.1" id="圖層_1" xmlns="http://www.w3.org/2000/svg" xmlns:xlink="http://www.w3.org/1999/xlink" x="0px" y="0px"
	 viewBox="0 0 135.44 135.44" style="enable-background:new 0 0 135.44 135.44;" xml:space="preserve">
<style type="text/css">
	.st0{fill:#FFE5B5;}
	.st1{clip-path:url(#SVGID_2_);fill:#FFE5B5;}
	.st2{opacity:0.7;fill:#41220E;}
	.st3{fill:#562B10;}
	.st4{fill:none;}
	.st5{fill:#E99F66;}
	.st6{fill:none;stroke:#000000;stroke-width:2;stroke-miterlimit:10;}
	.st7{opacity:0.4;fill:#41220E;}
	.st8{opacity:0.2;fill:#41220E;}
	.st9{opacity:0.1;fill:#41220E;}
	.st10{opacity:0.3;fill:#41220E;}
	.st11{fill:none;stroke:#562B10;stroke-width:2.5734;stroke-miterlimit:10;}
	.st12{fill:#41220E;}
	.st13{fill:#FFFFFF;}
	.st14{fill:#030104;}
	.st15{fill:#47598D;}
	.st16{opacity:0.5;fill:#C7E5F6;}
	.st17{fill:#B7DDC8;stroke:#562B10;stroke-width:3.0391;stroke-miterlimit:10;}
	.st18{opacity:0.5;fill:#FFE5B5;}
	.st19{clip-path:url(#SVGID_24_);}
	.st20{fill:#E99F66;stroke:#562B10;stroke-width:2.016;stroke-miterlimit:10;}
	.st21{fill:#B7DD9A;stroke:#562B10;stroke-width:3.0391;stroke-miterlimit:10;}
	.st22{fill:url(#SVGID_27_);}
	.st23{fill:url(#SVGID_28_);}
	.st24{fill:url(#SVGID_29_);}
	.st25{fill:url(#SVGID_30_);}
	.st26{fill:url(#SVGID_31_);}
	.st27{fill:url(#SVGID_32_);}
	.st28{fill:url(#SVGID_33_);}
	.st29{fill:url(#SVGID_34_);}
	.st30{fill:#7F1116;}
	.st31{fill:#70141B;}
	.st32{fill:#B0242B;}
	.st33{fill:url(#SVGID_35_);}
	.st34{fill:url(#SVGID_36_);}
	.st35{fill:url(#SVGID_37_);}
	.st36{fill:url(#SVGID_38_);}
	.st37{fill:url(#SVGID_39_);}
	.st38{fill:url(#SVGID_40_);}
	.st39{fill:url(#SVGID_41_);}
	.st40{fill:url(#SVGID_42_);}
</style>
<g>
	<circle class="st11" cx="67.72" cy="67.72" r="66.43"/>
	<g>
		<g>
			<g>
				<path class="st3" d="M117.72,56.65c-0.08-0.45-0.32-0.86-0.67-1.15c-3.26-2.76-3.81-5.8-4.25-8.25l-0.06-0.32
					c-0.15-0.83-0.82-1.48-1.66-1.6c-0.29-0.04-0.6-0.06-0.91-0.06c-1.87,0-4.51,0.79-6.19,2.55c-0.29,0.3-0.47,0.68-0.52,1.1
					c-0.14,1.06-0.21,2.03-0.28,2.88c-0.24,3.22-0.45,3.56-1.44,3.87c-0.61,0.19-1.1,0.68-1.29,1.29c-0.92,2.97-2.15,5.82-3.63,8.51
					c-0.73-1.4-1.54-2.66-2.3-3.83c-1.84-2.86-3.3-5.13-2.8-7.93c1.61-9.09,0.79-15.93-2.43-20.35c-1.8-2.46-4.36-4.13-7.47-4.92
					c0.62-4.83,3.98-7.02,5.84-7.52c1.05-0.28,1.67-1.36,1.39-2.41c-0.28-1.05-1.36-1.67-2.41-1.39c-3.84,1.03-7.94,4.8-8.72,10.83
					c-3.14-0.01-6,0.95-8.35,2.83c-4.29,3.43-6.89,9.8-7.71,18.94c-0.25,2.75-2.03,4.35-4.49,6.58c-2.01,1.81-4.25,3.84-6.04,6.9
					c-2.23-0.91-4.63-1.5-7.13-1.71c0.71-4.64,3.97-6.76,5.79-7.24c1.05-0.28,1.67-1.36,1.39-2.41c-0.28-1.05-1.36-1.67-2.41-1.39
					c-0.99,0.27-2,0.72-2.96,1.34c-0.45-2.21-1.53-4.29-3.17-5.93c-2.2-2.2-5.12-3.41-8.23-3.41c-1.02,0-2.03,0.13-3.01,0.39
					c-0.68,0.18-1.21,0.71-1.39,1.39c-1.07,4.01,0.09,8.32,3.01,11.25c2.04,2.04,4.7,3.23,7.56,3.39c-0.25,0.81-0.43,1.68-0.54,2.6
					c-12.69,0.95-22.73,11.58-22.73,24.52c0,13.56,11.03,24.59,24.59,24.59c5.04,0,9.84-1.5,13.95-4.34
					c0.65,0.28,1.3,0.56,1.95,0.81c5.93,2.34,11.92,3.52,17.8,3.52c9.47,0,18.26-3.09,25.41-8.95c7.48-6.12,12.99-15.17,15.94-26.18
					C118.11,71.86,118.96,63.4,117.72,56.65z M60.02,59.24c2.65-2.39,5.39-4.86,5.77-9.15c0.72-8.03,2.82-13.48,6.24-16.22
					c2.03-1.62,4.54-2.25,7.46-1.86c2.88,0.39,5.11,1.63,6.62,3.69c2.57,3.51,3.15,9.34,1.73,17.33c-0.77,4.32,1.34,7.59,3.37,10.75
					c1.14,1.77,2.31,3.6,3.11,5.72c-6.64,9.58-16.71,16.57-27.79,19.13c0.09-0.88,0.14-1.76,0.14-2.65c0-8.88-4.74-16.68-11.82-21
					C56.34,62.56,58.2,60.88,60.02,59.24z M36,52.7c-1.65-1.65-2.45-3.97-2.21-6.27c0.27-0.03,0.55-0.04,0.82-0.04
					c2.06,0,3.99,0.8,5.45,2.26c1.65,1.65,2.45,3.97,2.21,6.27c-0.27,0.03-0.55,0.04-0.82,0.04h0C39.39,54.95,37.46,54.15,36,52.7z
					 M42.09,106.64c-11.39,0-20.65-9.26-20.65-20.65s9.26-20.65,20.65-20.65c11.39,0,20.65,9.26,20.65,20.65
					c0,1.14-0.09,2.27-0.28,3.38c-1.27,0.16-2.54,0.27-3.82,0.31c0.27-1.21,0.41-2.44,0.41-3.69c0-2.22-0.43-4.38-1.27-6.43
					c-0.41-1.01-1.56-1.49-2.57-1.07c-1.01,0.41-1.49,1.56-1.07,2.57c0.65,1.58,0.97,3.24,0.97,4.94c0,1.24-0.18,2.45-0.52,3.63
					c-2.82-0.18-5.64-0.65-8.42-1.39c-0.57-0.15-1.17-0.04-1.65,0.3c-1.75,1.24-3.51,2.81-4.56,5.8c-0.27,0.77-0.03,1.63,0.59,2.16
					c3.62,3.04,7.4,5.62,11.29,7.71C48.86,105.8,45.55,106.64,42.09,106.64z M113.34,74.43c-5.4,20.16-19.44,32.2-37.55,32.2
					c-10.57,0-21.73-4.33-31.57-12.23c0.52-0.94,1.17-1.58,1.86-2.13c3.7,0.91,7.46,1.37,11.19,1.37c10.57,0,20.76-3.6,29.47-10.42
					c4.43-3.46,8.27-7.64,11.34-12.27c0.04-0.05,0.07-0.1,0.1-0.15c2.43-3.68,4.37-7.65,5.74-11.78c2.76-1.39,2.97-4.2,3.17-6.93
					c0.05-0.62,0.09-1.26,0.17-1.94c0.52-0.38,1.22-0.68,1.91-0.83c0.52,2.5,1.55,5.72,4.77,8.69
					C114.87,63.82,114.21,71.18,113.34,74.43z"/>
			</g>
		</g>
		<g>
			<g>
				<path class="st3" d="M81.02,36.07c-1-0.42-2.16,0.05-2.58,1.05c-0.42,1,0.05,2.16,1.05,2.58c1.43,0.6,2.22,4.92,0.96,12.02
					c-0.19,1.07,0.52,2.09,1.6,2.28c0.12,0.02,0.23,0.03,0.35,0.03c0.94,0,1.77-0.67,1.94-1.63C85.46,46.06,85.8,38.07,81.02,36.07z
					"/>
			</g>
		</g>
		<g>
			<g>
				<path class="st3" d="M94.04,92.43c-0.65-0.87-1.89-1.04-2.76-0.39c0,0-0.01,0.01-0.01,0.01c-0.88,0.64-1.06,1.87-0.42,2.75
					c0.39,0.53,0.98,0.81,1.59,0.81c0.4,0,0.81-0.12,1.16-0.38l0.05-0.03C94.51,94.54,94.69,93.31,94.04,92.43z"/>
			</g>
		</g>
		<g>
			<g>
				<path class="st3" d="M89.52,95.62c-0.5-0.97-1.68-1.35-2.65-0.86c-6.74,3.45-12.43,3.31-12.51,3.31c-1.08-0.04-2,0.81-2.04,1.89
					c-0.04,1.09,0.8,2,1.89,2.04c0.03,0,0.14,0,0.31,0c1.41,0,7.27-0.23,14.14-3.74C89.63,97.77,90.01,96.59,89.52,95.62z"/>
			</g>
		</g>
		<g>
			<g>
				<path class="st3" d="M54.14,74.06l-0.06-0.06c-0.77-0.77-2.02-0.76-2.79,0.01c-0.77,0.77-0.76,2.02,0.01,2.79l0.04,0.04
					c0.39,0.39,0.89,0.58,1.4,0.58c0.5,0,1-0.19,1.39-0.57C54.9,76.08,54.91,74.83,54.14,74.06z"/>
			</g>
		</g>
	</g>
</g>
</svg>
