<?xml version="1.0" encoding="utf-8"?>
<!-- Generator: Adobe Illustrator 23.0.3, SVG Export Plug-In . SVG Version: 6.00 Build 0)  -->
<svg version="1.1" id="圖層_1" xmlns="http://www.w3.org/2000/svg" xmlns:xlink="http://www.w3.org/1999/xlink" x="0px" y="0px"
	 viewBox="0 0 135.44 135.44" style="enable-background:new 0 0 135.44 135.44;" xml:space="preserve">
<style type="text/css">
	.st0{fill:#FFE5B5;}
	.st1{clip-path:url(#SVGID_2_);fill:#FFE5B5;}
	.st2{opacity:0.7;fill:#41220E;}
	.st3{fill:#562B10;}
	.st4{fill:none;}
	.st5{fill:#E99F66;}
	.st6{fill:none;stroke:#000000;stroke-width:2;stroke-miterlimit:10;}
	.st7{opacity:0.4;fill:#41220E;}
	.st8{opacity:0.2;fill:#41220E;}
	.st9{opacity:0.1;fill:#41220E;}
	.st10{opacity:0.3;fill:#41220E;}
	.st11{fill:none;stroke:#562B10;stroke-width:2.5734;stroke-miterlimit:10;}
	.st12{fill:#41220E;}
	.st13{fill:#FFFFFF;}
	.st14{fill:#030104;}
	.st15{fill:#47598D;}
	.st16{opacity:0.5;fill:#C7E5F6;}
	.st17{fill:#B7DDC8;stroke:#562B10;stroke-width:3.0391;stroke-miterlimit:10;}
	.st18{opacity:0.5;fill:#FFE5B5;}
	.st19{clip-path:url(#SVGID_24_);}
	.st20{fill:#E99F66;stroke:#562B10;stroke-width:2.016;stroke-miterlimit:10;}
	.st21{fill:#B7DD9A;stroke:#562B10;stroke-width:3.0391;stroke-miterlimit:10;}
	.st22{fill:url(#SVGID_27_);}
	.st23{fill:url(#SVGID_28_);}
	.st24{fill:url(#SVGID_29_);}
	.st25{fill:url(#SVGID_30_);}
	.st26{fill:url(#SVGID_31_);}
	.st27{fill:url(#SVGID_32_);}
	.st28{fill:url(#SVGID_33_);}
	.st29{fill:url(#SVGID_34_);}
	.st30{fill:#7F1116;}
	.st31{fill:#70141B;}
	.st32{fill:#B0242B;}
	.st33{fill:url(#SVGID_35_);}
	.st34{fill:url(#SVGID_36_);}
	.st35{fill:url(#SVGID_37_);}
	.st36{fill:url(#SVGID_38_);}
	.st37{fill:url(#SVGID_39_);}
	.st38{fill:url(#SVGID_40_);}
	.st39{fill:url(#SVGID_41_);}
	.st40{fill:url(#SVGID_42_);}
</style>
<g>
	<circle class="st11" cx="67.72" cy="67.72" r="66.43"/>
	<g>
		<g>
			<g>
				<path class="st3" d="M97.57,89.18v-2.54c7.14-4.53,11.54-12.47,11.54-20.95v-2.52c0-1.18-0.96-2.14-2.14-2.14h-4.37
					c1.1-1.42,2.29-2.78,3.56-4.05l5.28-5.28c0.88-0.88,1.36-2.05,1.36-3.29c0-1.24-0.48-2.41-1.36-3.29l-1.19-1.19
					c-1.81-1.81-4.77-1.81-6.58,0l-5.28,5.28c-1.95,1.95-4.1,3.71-6.39,5.24c-2.43,1.62-4.72,3.49-6.78,5.56l-1.02,1.02H59.98
					c-1.18,0-2.14,0.96-2.14,2.14v2.52c0,2.46,0.36,4.88,1.07,7.21c-0.84,0.17-1.64,0.52-2.35,1.08l-2.81,2.2V51.65
					c1.47-0.53,2.52-1.94,2.52-3.59v-13.6c0-2.09,0.42-4.14,1.24-6.07c0.29-0.68,0.44-1.4,0.44-2.15c0-2.1-1.17-3.99-3.06-4.92
					c-1.98-0.98-4.33-0.67-6.29,0.82c-0.09,0.07-0.18,0.15-0.25,0.25c-1.41,1.85-1.77,4.02-0.98,5.94c0.84,2.05,1.27,4.07,1.27,6.01
					v13.72c0,1.65,1.05,3.05,2.52,3.59v26.54l-6.32,4.94l-7.23-26.99c0.45-0.32,0.84-0.73,1.12-1.22c0.51-0.88,0.64-1.91,0.38-2.89
					L35.59,38.9c-0.54-2.02-0.67-4.1-0.37-6.19c0.1-0.73,0.06-1.47-0.13-2.19c-0.54-2.03-2.16-3.55-4.23-3.96
					c-2.17-0.43-4.36,0.47-5.87,2.42c-0.07,0.09-0.13,0.19-0.17,0.3c-0.88,2.15-0.67,4.34,0.59,5.99c1.34,1.76,2.28,3.61,2.78,5.48
					l3.55,13.26c0.43,1.59,1.81,2.68,3.36,2.81l7.52,28.06l-4.91,3.84c-0.54-0.52-1.26-0.84-2.06-0.84
					c-6.27,0-11.37,5.1-11.37,11.37c0,1.64,1.33,2.97,2.97,2.97c3.54,0,6.7-1.62,8.79-4.17c0.95,0.92,2.21,1.48,3.57,1.56
					c0.15,0.35,0.36,0.68,0.64,0.96c2.15,2.15,5,3.33,8.04,3.33c3.04,0,5.89-1.18,8.04-3.33c0.28-0.28,0.49-0.6,0.64-0.95h23.09
					c3.07,0,5.57-2.5,5.57-5.57c0-0.08,0-0.15-0.01-0.23h7.3C95.48,93.83,97.57,91.75,97.57,89.18z M35.74,54.2
					c-0.65,0.17-1.32-0.21-1.5-0.86l-3.55-13.26c-0.59-2.2-1.67-4.34-3.22-6.38c-0.67-0.88-0.78-2.04-0.32-3.27
					c0.89-1.07,2.05-1.56,3.2-1.33c1.09,0.22,1.94,1.02,2.23,2.09c0.1,0.38,0.13,0.77,0.07,1.15c-0.34,2.43-0.2,4.86,0.44,7.22
					L36.6,52.7C36.78,53.35,36.39,54.03,35.74,54.2z M27.25,99.63c-0.21,0-0.38-0.17-0.38-0.38c0-4.84,3.94-8.77,8.77-8.77
					c0.21,0,0.38,0.17,0.38,0.38C36.03,95.7,32.09,99.63,27.25,99.63z M93.43,56.61c2.43-1.62,4.71-3.49,6.78-5.56l5.28-5.28
					c0.8-0.8,2.11-0.8,2.91,0l1.19,1.19c0.8,0.8,0.8,2.11,0,2.91l-5.28,5.28c-1.81,1.81-3.47,3.79-4.94,5.88H87.89
					C89.61,59.41,91.47,57.92,93.43,56.61z M49.77,27.35c-0.42-1.02-0.23-2.17,0.54-3.24c1.14-0.81,2.38-0.97,3.43-0.45
					c1,0.49,1.61,1.49,1.61,2.6c0,0.39-0.08,0.78-0.23,1.13c0,0,0,0,0,0c-0.96,2.26-1.45,4.64-1.45,7.09v13.6
					c0,0.67-0.55,1.22-1.22,1.22s-1.22-0.55-1.22-1.22V34.34C51.23,32.07,50.74,29.71,49.77,27.35z M54.49,98.74
					c-1.66,1.66-3.86,2.57-6.2,2.57c-2.34,0-4.55-0.91-6.2-2.57c-0.15-0.15-0.15-0.39,0-0.54c1.71-1.71,3.96-2.57,6.2-2.57
					c2.25,0,4.49,0.86,6.2,2.57c0.09,0.09,0.11,0.2,0.11,0.27C54.61,98.54,54.59,98.65,54.49,98.74z M80.06,97.03H56.83
					c-0.13-0.24-0.3-0.47-0.5-0.67c-4.43-4.43-11.64-4.43-16.07,0c-0.2,0.2-0.36,0.42-0.5,0.66c-0.91-0.05-1.74-0.51-2.26-1.24
					c0.66-1.36,1.05-2.88,1.11-4.48l19.54-15.3c1.08-0.84,2.59-0.84,3.66,0l3.78,2.96c0.56,0.44,1.38,0.34,1.82-0.22
					c0.44-0.56,0.34-1.38-0.22-1.82l-3.78-2.96c-0.53-0.41-1.12-0.72-1.73-0.91c-0.83-2.36-1.25-4.84-1.25-7.37v-2.06h46.07v2.06
					c0,7.65-3.99,14.8-10.46,18.84H76.91l-5.87-4.6c-0.56-0.44-1.38-0.34-1.82,0.22c-0.44,0.56-0.34,1.38,0.22,1.82l12.45,9.75
					c0.72,0.57,1.14,1.42,1.14,2.34C83.03,95.7,81.69,97.03,80.06,97.03z M84.86,91.24c-0.35-0.59-0.81-1.12-1.37-1.56l-3.27-2.56
					h14.75v2.06c0,1.14-0.92,2.06-2.06,2.06H84.86z"/>
				<path class="st3" d="M95.85,101.74c-0.56,0.56-0.87,1.31-0.87,2.1c0,0.79,0.31,1.54,0.87,2.1c2.15,2.15,5,3.33,8.04,3.33
					c3.04,0,5.89-1.18,8.04-3.33c0,0,0,0,0,0c1.16-1.16,1.16-3.05,0-4.21C107.49,97.31,100.28,97.31,95.85,101.74z M110.09,104.11
					c-3.42,3.42-8.99,3.42-12.41,0c-0.15-0.15-0.15-0.39,0-0.54c1.71-1.71,3.96-2.57,6.2-2.57c2.25,0,4.49,0.86,6.2,2.57
					C110.24,103.72,110.24,103.96,110.09,104.11z"/>
			</g>
		</g>
	</g>
</g>
</svg>
