<?xml version="1.0" encoding="utf-8"?>
<!-- Generator: Adobe Illustrator 23.0.3, SVG Export Plug-In . SVG Version: 6.00 Build 0)  -->
<svg version="1.1" id="圖層_1" xmlns="http://www.w3.org/2000/svg" xmlns:xlink="http://www.w3.org/1999/xlink" x="0px" y="0px"
	 viewBox="0 0 135.44 135.44" style="enable-background:new 0 0 135.44 135.44;" xml:space="preserve">
<style type="text/css">
	.st0{fill:#FFE5B5;}
	.st1{clip-path:url(#SVGID_2_);fill:#FFE5B5;}
	.st2{opacity:0.7;fill:#41220E;}
	.st3{fill:#562B10;}
	.st4{fill:none;}
	.st5{fill:#E99F66;}
	.st6{fill:none;stroke:#000000;stroke-width:2;stroke-miterlimit:10;}
	.st7{opacity:0.4;fill:#41220E;}
	.st8{opacity:0.2;fill:#41220E;}
	.st9{opacity:0.1;fill:#41220E;}
	.st10{opacity:0.3;fill:#41220E;}
	.st11{fill:none;stroke:#562B10;stroke-width:2.5734;stroke-miterlimit:10;}
	.st12{fill:#41220E;}
	.st13{fill:#FFFFFF;}
	.st14{fill:#030104;}
	.st15{fill:#47598D;}
	.st16{opacity:0.5;fill:#C7E5F6;}
	.st17{fill:#B7DDC8;stroke:#562B10;stroke-width:3.0391;stroke-miterlimit:10;}
	.st18{opacity:0.5;fill:#FFE5B5;}
	.st19{clip-path:url(#SVGID_24_);}
	.st20{fill:#E99F66;stroke:#562B10;stroke-width:2.016;stroke-miterlimit:10;}
	.st21{fill:#B7DD9A;stroke:#562B10;stroke-width:3.0391;stroke-miterlimit:10;}
	.st22{fill:url(#SVGID_27_);}
	.st23{fill:url(#SVGID_28_);}
	.st24{fill:url(#SVGID_29_);}
	.st25{fill:url(#SVGID_30_);}
	.st26{fill:url(#SVGID_31_);}
	.st27{fill:url(#SVGID_32_);}
	.st28{fill:url(#SVGID_33_);}
	.st29{fill:url(#SVGID_34_);}
	.st30{fill:#7F1116;}
	.st31{fill:#70141B;}
	.st32{fill:#B0242B;}
	.st33{fill:url(#SVGID_35_);}
	.st34{fill:url(#SVGID_36_);}
	.st35{fill:url(#SVGID_37_);}
	.st36{fill:url(#SVGID_38_);}
	.st37{fill:url(#SVGID_39_);}
	.st38{fill:url(#SVGID_40_);}
	.st39{fill:url(#SVGID_41_);}
	.st40{fill:url(#SVGID_42_);}
</style>
<g>
	<circle class="st11" cx="67.72" cy="67.72" r="66.43"/>
	<g>
		<path class="st3" d="M111.01,43.19c-6.66-11.2-17.28-19.14-29.91-22.35s-25.75-1.31-36.95,5.35C32.95,32.85,25.01,43.48,21.8,56.1
			s-1.31,25.75,5.35,36.95s17.28,19.14,29.91,22.35c4.01,1.02,8.07,1.52,12.1,1.52c8.66,0,17.2-2.33,24.85-6.87
			c11.2-6.66,19.14-17.28,22.35-29.91C119.57,67.52,117.67,54.39,111.01,43.19z M57.81,112.44c-4.8-1.22-8.43-7.01-9.98-15.89
			c-1.64-9.43-0.86-21.24,2.2-33.27C54.2,46.86,62.18,32.6,70.5,26.55c2.26,1.52,5.09,2.77,8.24,3.57c2.36,0.6,4.68,0.89,6.84,0.89
			c0.72,0,1.43-0.04,2.11-0.1c4.43,9.29,4.62,25.62,0.44,42.05C85.07,85,80.11,95.75,74.16,103.25c-4.84,6.11-9.95,9.44-14.35,9.44
			C59.13,112.69,58.46,112.61,57.81,112.44z M89.92,27.41c-2.77,0.78-6.61,0.73-10.43-0.24c-3.82-0.97-7.22-2.75-9.28-4.77
			c3.38,0.09,6.78,0.56,10.13,1.41C83.7,24.66,86.91,25.87,89.92,27.41z M29.77,91.49c-6.24-10.5-8.02-22.8-5.01-34.64
			c3.01-11.84,10.45-21.79,20.95-28.04c6.38-3.79,13.42-5.94,20.63-6.36c0.46,0.73,1.04,1.43,1.72,2.11
			c-8.74,6.75-16.69,21.05-20.99,37.96c-3.16,12.44-3.96,24.71-2.24,34.55c0.88,5.03,2.37,9.16,4.38,12.24
			C41.17,105.46,34.43,99.33,29.77,91.49z M92.45,107.43c-7.84,4.66-16.68,6.83-25.58,6.38c3.24-1.75,6.52-4.66,9.69-8.66
			c6.21-7.83,11.37-18.99,14.53-31.43c4.3-16.92,4.15-33.27-0.31-43.38c0.92-0.27,1.77-0.61,2.52-1.03
			c6.12,3.81,11.29,9.06,15.08,15.44c6.24,10.5,8.02,22.8,5.01,34.64C110.39,91.23,102.95,101.19,92.45,107.43z"/>
		<path class="st3" d="M99.28,38.55c-0.59-0.6-1.56-0.61-2.16-0.02c-0.6,0.59-0.61,1.56-0.02,2.16c0.88,0.9,1.73,1.86,2.52,2.84
			c0.3,0.38,0.74,0.57,1.19,0.57c0.34,0,0.67-0.11,0.96-0.34c0.66-0.53,0.76-1.49,0.23-2.15C101.14,40.55,100.23,39.52,99.28,38.55z
			"/>
		<path class="st3" d="M31.08,58.46c0.21-0.82-0.29-1.65-1.1-1.86c-0.82-0.21-1.65,0.29-1.86,1.1c-2.48,9.77-1.39,20.11,3.07,29.13
			c0.27,0.54,0.81,0.85,1.37,0.85c0.23,0,0.46-0.05,0.68-0.16c0.76-0.37,1.07-1.29,0.69-2.05C29.79,77.12,28.78,67.52,31.08,58.46z"
			/>
		<path class="st3" d="M37.33,91.14c-0.49-0.68-1.45-0.84-2.13-0.34s-0.84,1.45-0.34,2.13c0.82,1.14,1.71,2.25,2.65,3.3
			c0.3,0.34,0.72,0.51,1.14,0.51c0.36,0,0.72-0.13,1.01-0.39c0.63-0.56,0.69-1.53,0.13-2.16C38.93,93.23,38.1,92.2,37.33,91.14z"/>
		<path class="st3" d="M103.72,46.63c-0.73,0.42-0.99,1.35-0.57,2.08c5.05,8.86,6.44,19.18,3.93,29.07
			c-0.21,0.82,0.29,1.65,1.1,1.86c0.13,0.03,0.25,0.05,0.38,0.05c0.68,0,1.3-0.46,1.48-1.15c2.71-10.66,1.2-21.78-4.24-31.33
			C105.38,46.47,104.45,46.22,103.72,46.63z"/>
	</g>
</g>
</svg>
