<?xml version="1.0" encoding="utf-8"?>
<!-- Generator: Adobe Illustrator 23.0.3, SVG Export Plug-In . SVG Version: 6.00 Build 0)  -->
<svg version="1.1" id="圖層_1" xmlns="http://www.w3.org/2000/svg" xmlns:xlink="http://www.w3.org/1999/xlink" x="0px" y="0px"
	 viewBox="0 0 135.44 135.44" style="enable-background:new 0 0 135.44 135.44;" xml:space="preserve">
<style type="text/css">
	.st0{fill:#FFE5B5;}
	.st1{clip-path:url(#SVGID_2_);fill:#FFE5B5;}
	.st2{opacity:0.7;fill:#41220E;}
	.st3{fill:#562B10;}
	.st4{fill:none;}
	.st5{fill:#E99F66;}
	.st6{fill:none;stroke:#000000;stroke-width:2;stroke-miterlimit:10;}
	.st7{opacity:0.4;fill:#41220E;}
	.st8{opacity:0.2;fill:#41220E;}
	.st9{opacity:0.1;fill:#41220E;}
	.st10{opacity:0.3;fill:#41220E;}
	.st11{fill:none;stroke:#562B10;stroke-width:2.5734;stroke-miterlimit:10;}
	.st12{fill:#41220E;}
	.st13{fill:#FFFFFF;}
	.st14{fill:#030104;}
	.st15{fill:#47598D;}
	.st16{opacity:0.5;fill:#C7E5F6;}
	.st17{fill:#B7DDC8;stroke:#562B10;stroke-width:3.0391;stroke-miterlimit:10;}
	.st18{opacity:0.5;fill:#FFE5B5;}
	.st19{clip-path:url(#SVGID_24_);}
	.st20{fill:#E99F66;stroke:#562B10;stroke-width:2.016;stroke-miterlimit:10;}
	.st21{fill:#B7DD9A;stroke:#562B10;stroke-width:3.0391;stroke-miterlimit:10;}
	.st22{fill:url(#SVGID_27_);}
	.st23{fill:url(#SVGID_28_);}
	.st24{fill:url(#SVGID_29_);}
	.st25{fill:url(#SVGID_30_);}
	.st26{fill:url(#SVGID_31_);}
	.st27{fill:url(#SVGID_32_);}
	.st28{fill:url(#SVGID_33_);}
	.st29{fill:url(#SVGID_34_);}
	.st30{fill:#7F1116;}
	.st31{fill:#70141B;}
	.st32{fill:#B0242B;}
	.st33{fill:url(#SVGID_35_);}
	.st34{fill:url(#SVGID_36_);}
	.st35{fill:url(#SVGID_37_);}
	.st36{fill:url(#SVGID_38_);}
	.st37{fill:url(#SVGID_39_);}
	.st38{fill:url(#SVGID_40_);}
	.st39{fill:url(#SVGID_41_);}
	.st40{fill:url(#SVGID_42_);}
</style>
<g>
	<circle class="st11" cx="67.72" cy="67.72" r="66.43"/>
	<g>
		<path class="st3" d="M46.16,82.93c-2.33-2.32-6.11-2.32-8.43,0c-1.13,1.13-1.75,2.62-1.75,4.22c0,1.59,0.62,3.09,1.75,4.22
			c1.16,1.16,2.69,1.74,4.22,1.74c1.53,0,3.06-0.58,4.22-1.74c1.13-1.13,1.75-2.62,1.75-4.22C47.91,85.55,47.29,84.06,46.16,82.93z
			 M43.35,88.55c-0.78,0.78-2.03,0.78-2.81,0c-0.37-0.38-0.58-0.87-0.58-1.41c0-0.53,0.21-1.03,0.58-1.41
			c0.39-0.39,0.9-0.58,1.41-0.58c0.51,0,1.02,0.19,1.41,0.58v0c0.38,0.37,0.58,0.87,0.58,1.4C43.93,87.68,43.72,88.18,43.35,88.55z"
			/>
		<path class="st3" d="M122.16,46c-0.3-1.46-1.27-2.69-2.6-3.28c-0.9-0.4-1.23-1.31-1.68-2.77c-0.46-1.5-1.28-4.26-4.41-3.99
			c-1.06,0.11-1.99-0.2-2.63-0.83c-0.63-0.63-0.93-1.57-0.83-2.63c0.21-2.26-0.49-4.32-1.98-5.81c-1.4-1.4-3.32-2.08-5.53-2
			c-0.03-0.13-0.05-0.26-0.07-0.38c-0.28-1.5-0.87-4.6-5.19-5.18c-0.76-0.24-2.86-0.75-4.6,0.32c-0.83,0.51-1.86,1.55-2.08,3.83
			l-0.05,12.45h-20.3c-3.16,0-6.23,0.38-9.19,1.05c-1.06-4-2.82-7.79-5.33-11.25l-0.99-1.36l-1.51,0.74
			c-0.38,0.19-9.28,4.68-11.74,12.4c-0.99,3.12-0.81,6.3,0.55,9.46c-8.29,7.63-13.53,18.54-13.53,30.67v35.82h35.55
			c11.22,0,21.77-4.37,29.7-12.31c0.96-0.96,1.87-1.97,2.73-3c0.88,0.07,1.78,0.12,2.76,0.12c5.61,0,12.74-1.38,19.83-6.51
			l1.36-0.99l-0.75-1.51c-0.23-0.46-5.34-10.54-14.05-12.14c0.25-1.87,0.43-3.76,0.42-5.67V51.08l12.56,0.12l0.16-0.03
			c0.9-0.14,1.72-0.57,2.35-1.25l0.01-0.01C122.06,48.88,122.45,47.42,122.16,46z M45.23,44.05c-0.58-1.87-0.57-3.69,0.01-5.51
			c1.41-4.45,5.87-7.73,8.23-9.2c1.71,2.66,2.96,5.5,3.76,8.48c-1.8,0.59-3.53,1.32-5.21,2.14c-0.41,0.2-0.82,0.38-1.22,0.59
			c-0.56,0.29-1.09,0.62-1.63,0.93c-0.55,0.32-1.11,0.65-1.64,1c-0.49,0.32-0.96,0.65-1.44,0.99C45.8,43.66,45.51,43.84,45.23,44.05
			z M104.9,80.83c5.01,0.94,8.73,5.97,10.33,8.52c-5.74,3.7-11.42,4.74-15.97,4.75c2.59-3.97,4.44-8.35,5.55-12.95
			C104.84,81.05,104.88,80.94,104.9,80.83z M118.19,47.22l-16.14-0.15v24.2c0,2.3-0.23,4.56-0.63,6.78l-0.05,0.28
			c-0.11,0.6-0.25,1.2-0.39,1.79c-0.06,0.26-0.12,0.51-0.19,0.77c-1.31,4.98-3.63,9.7-6.83,13.78l-0.77,0.98
			c-0.72,0.86-1.47,1.71-2.28,2.51c-7.18,7.18-16.73,11.14-26.89,11.14H32.45V77.45c0-11.55,5.23-21.89,13.43-28.83
			c3.11-2.62,6.56-4.7,10.3-6.2c0.03-0.01,0.06-0.02,0.09-0.03c1.23-0.49,2.5-0.91,3.8-1.28c3.23-0.9,6.62-1.42,10.14-1.42h24.26
			l0.05-16.22c0.04-0.43,0.15-0.62,0.19-0.65c0.2-0.12,0.89-0.07,1.35,0.1l0.5,0.12c1.61,0.18,1.7,0.64,1.95,2
			c0.21,1.08,0.75,3.93,4.07,3.63c1.06-0.1,1.99,0.2,2.63,0.83c0.63,0.64,0.93,1.57,0.83,2.63c-0.21,2.26,0.49,4.32,1.98,5.81
			c1.44,1.44,3.45,2.14,5.64,1.99c0.13,0.29,0.29,0.81,0.41,1.18c0.5,1.62,1.24,4.08,3.86,5.24c0.19,0.08,0.29,0.29,0.32,0.45
			C118.28,46.88,118.31,47.08,118.19,47.22L118.19,47.22z M118.46,47.52v-0.06l1.19,1.1L118.46,47.52z"/>
		<path class="st3" d="M41.94,68.29v3.98c15.35,0,27.84,12.49,27.84,27.84h3.98C73.76,82.56,59.49,68.29,41.94,68.29z"/>
		<path class="st3" d="M48.41,61.82v3.98c15.35,0,27.84,12.49,27.84,27.84h3.98C80.23,76.09,65.96,61.82,48.41,61.82z"/>
		<path class="st3" d="M54.6,55.63v3.98c15.35,0,27.84,12.49,27.84,27.84h3.98C86.41,69.91,72.14,55.63,54.6,55.63z"/>
		<path class="st3" d="M61.07,49.16v3.98c15.35,0,27.84,12.49,27.84,27.84h3.98C92.89,63.43,78.61,49.16,61.07,49.16z"/>
	</g>
</g>
</svg>
