<?xml version="1.0" encoding="utf-8"?>
<!-- Generator: Adobe Illustrator 23.0.3, SVG Export Plug-In . SVG Version: 6.00 Build 0)  -->
<svg version="1.1" id="圖層_1" xmlns="http://www.w3.org/2000/svg" xmlns:xlink="http://www.w3.org/1999/xlink" x="0px" y="0px"
	 viewBox="0 0 28.47 28.47" style="enable-background:new 0 0 28.47 28.47;" xml:space="preserve">
<style type="text/css">
	.st0{fill:#FFE5B5;}
	.st1{clip-path:url(#SVGID_2_);fill:#FFE5B5;}
	.st2{opacity:0.7;fill:#41220E;}
	.st3{fill:#562B10;}
	.st4{fill:none;}
	.st5{fill:#E99F66;}
	.st6{fill:none;stroke:#000000;stroke-width:2;stroke-miterlimit:10;}
	.st7{opacity:0.4;fill:#41220E;}
	.st8{opacity:0.2;fill:#41220E;}
	.st9{opacity:0.1;fill:#41220E;}
	.st10{opacity:0.3;fill:#41220E;}
	.st11{fill:none;stroke:#562B10;stroke-width:2.5734;stroke-miterlimit:10;}
	.st12{fill:#41220E;}
	.st13{fill:#FFFFFF;}
	.st14{fill:#030104;}
	.st15{fill:#47598D;}
	.st16{opacity:0.5;fill:#C7E5F6;}
	.st17{fill:#B7DDC8;stroke:#562B10;stroke-width:3.0391;stroke-miterlimit:10;}
	.st18{opacity:0.5;fill:#FFE5B5;}
	.st19{clip-path:url(#SVGID_24_);}
	.st20{fill:#E99F66;stroke:#562B10;stroke-width:2.016;stroke-miterlimit:10;}
	.st21{fill:#B7DD9A;stroke:#562B10;stroke-width:3.0391;stroke-miterlimit:10;}
	.st22{fill:url(#SVGID_27_);}
	.st23{fill:url(#SVGID_28_);}
	.st24{fill:url(#SVGID_29_);}
	.st25{fill:url(#SVGID_30_);}
	.st26{fill:url(#SVGID_31_);}
	.st27{fill:url(#SVGID_32_);}
	.st28{fill:url(#SVGID_33_);}
	.st29{fill:url(#SVGID_34_);}
	.st30{fill:#7F1116;}
	.st31{fill:#70141B;}
	.st32{fill:#B0242B;}
	.st33{fill:url(#SVGID_35_);}
	.st34{fill:url(#SVGID_36_);}
	.st35{fill:url(#SVGID_37_);}
	.st36{fill:url(#SVGID_38_);}
	.st37{fill:url(#SVGID_39_);}
	.st38{fill:url(#SVGID_40_);}
	.st39{fill:url(#SVGID_41_);}
	.st40{fill:url(#SVGID_42_);}
</style>
<g>
	<path class="st13" d="M23.07,14.47l-0.39,3.28c-0.04,0.31-0.3,0.55-0.62,0.55h-3.51l-0.02,10.17h-4.44l0.02-10.17h-2.64
		c-0.34,0-0.62-0.28-0.62-0.62l-0.01-3.28c0-0.34,0.28-0.63,0.62-0.63h2.64V10.6c0-3.68,2.25-5.68,5.53-5.68h2.69
		c0.34,0,0.62,0.28,0.62,0.62v2.77c0,0.34-0.28,0.62-0.62,0.62l-1.65,0c-1.78,0-2.13,0.85-2.13,2.09v2.74h3.92
		C22.82,13.77,23.11,14.1,23.07,14.47z"/>
	<path class="st15" d="M28.47,3.84v20.8c0,2.12-1.72,3.84-3.84,3.84h-6.1l0.02-10.17h3.51c0.32,0,0.58-0.24,0.62-0.55l0.39-3.28
		c0.04-0.37-0.25-0.7-0.62-0.7h-3.92v-2.74c0-1.24,0.35-2.09,2.13-2.09l1.65,0c0.34,0,0.62-0.28,0.62-0.62V5.55
		c0-0.34-0.28-0.62-0.62-0.62h-2.69c-3.28,0-5.53,2-5.53,5.68v3.17h-2.64c-0.35,0-0.62,0.28-0.62,0.63l0.01,3.28
		c0,0.34,0.28,0.62,0.62,0.62h2.64l-0.02,10.17H3.84C1.72,28.47,0,26.75,0,24.63V3.84C0,1.72,1.72,0,3.84,0h20.8
		C26.75,0,28.47,1.72,28.47,3.84z"/>
</g>
</svg>
