<?xml version="1.0" encoding="utf-8"?>
<!-- Generator: Adobe Illustrator 23.0.3, SVG Export Plug-In . SVG Version: 6.00 Build 0)  -->
<svg version="1.1" id="圖層_1" xmlns="http://www.w3.org/2000/svg" xmlns:xlink="http://www.w3.org/1999/xlink" x="0px" y="0px"
	 viewBox="0 0 241.77 241.77" style="enable-background:new 0 0 241.77 241.77;" xml:space="preserve">
<style type="text/css">
	.st0{fill:#FFE2B2;}
	.st1{fill:none;stroke:#562B10;stroke-width:3;stroke-miterlimit:10;}
	.st2{fill:#562B10;}
	.st3{opacity:0.7;fill:#41220E;}
	.st4{fill:none;stroke:#562B10;stroke-width:11;stroke-linecap:round;stroke-linejoin:round;stroke-miterlimit:10;}
</style>
<g>
	<circle class="st1" cx="120.89" cy="120.89" r="119.39"/>
	<g>
		<path class="st2" d="M187.83,129.53c4.77,1.97,6.46,5.95,6.34,10.99c-0.06,2.57-0.8,4.87-2.61,6.69
			c-3.25,3.26-4.61,6.92-3.89,11.66c2.11,13.74-9.4,20.49-18.18,21.69c-1.52,0.21-1.59,1.11-2.01,2.05c-2.3,5.27-4.35,10.66-7,15.75
			c-4.02,7.75-10.61,12.82-18.55,16.19c-1.09,0.46-2.36,0.53-3.56,0.68c-2.51,0.31-5.02,0.58-7.53,0.82
			c-3.58,0.35-7.17,0.99-10.74,0.92c-9.52-0.19-19.04-0.59-28.55-1.15c-2.95-0.17-6-0.71-8.75-1.75c-5.5-2.08-9.25-6.41-12.53-11.11
			c-7.6-10.91-11.42-23.26-12.94-36.28c-0.85-7.31-0.62-14.74-1.15-22.09c-0.39-5.4,0.17-10.96-2.04-16.14
			c-0.12-0.28-0.15-0.6-0.16-0.9c-0.45-9.19-0.88-18.38-1.36-27.57c-0.1-1.91-0.49-3.8-0.57-5.71c-0.19-4.57-0.23-9.14-0.42-13.71
			c-0.03-0.7-0.45-1.46-0.88-2.06c-0.79-1.09-1.73-2.08-2.8-3.34c0.95-0.4,1.53-0.64,2.34-0.97c-0.6-1.47-1.06-3.02-1.83-4.4
			c-1.13-2.03-1.58-3.72,1.2-4.56c-1.14-4.91-1.14-4.91,4.85-6.2c-0.7-1.52-1.45-3.01-2.08-4.55c-1.85-4.54-0.7-6.25,4.12-6.21
			c0.21,0,0.42-0.1,0.75-0.18c0-1.77-0.02-3.52,0-5.26c0.04-2.79,1.01-3.58,3.74-3.06c1.03,0.2,2.04,0.49,3.1,0.75
			c0.16-3.23,1.5-4.51,4.62-4.62c-0.55-2.38-0.55-2.38,4.18-3.36c-0.19-0.41-0.37-0.78-0.54-1.16c-0.77-1.66-0.07-2.87,1.71-2.63
			c4.18,0.54,8.34,1.2,12.49,1.92c1.79,0.31,3.21,0.33,4.18-1.6c0.31-0.63,1.44-1.31,2.08-1.22c2.48,0.35,4.92,1,7.38,1.55
			c0.79,0.18,1.57,0.38,2.36,0.57c0.75-4.19,3.81-6.18,7.4-4.67c3.6,1.51,7.18,3.04,10.78,4.54c0.76,0.31,1.56,0.53,2.21,0.74
			c0.31-0.25,0.49-0.32,0.53-0.44c1.34-4.71,2.03-5.06,6.26-2.66c2.91,1.65,5.69,3.53,8.61,5.36c0.75-2.12,1.44-4.19,2.24-6.21
			c0.26-0.65,0.79-1.57,1.29-1.63c0.55-0.06,1.36,0.6,1.76,1.16c2.87,3.98,5.65,8.01,8.48,12.02c0.38,0.54,0.91,0.98,1.62,1.74
			c1.07-1.76,1.96-3.32,2.94-4.82c1.19-1.83,2.01-1.92,2.88,0.05c1.67,3.77,3.02,7.69,4.48,11.56c0.3,0.78,0.53,1.59,0.88,2.64
			c1.75-0.45,3.41-0.93,5.11-1.3c1.92-0.41,2.91,0.37,3.1,2.32c0.05,0.53,0.07,1.08,0,1.61c-0.32,2.64-0.1,4.94,3.04,5.82
			c0.73,0.2,1.31,0.92,2.13,1.53c2.04-0.43,4.57-0.95,7.45-1.55c0,2.6,0.06,4.8-0.02,7c-0.06,1.56,0.61,2.45,2.07,2.88
			c2.98,0.9,3.24,1.55,1.84,4.4c-0.36,0.73-0.71,1.47-1.08,2.23c3.79,1.07,3.8,1.07,3.23,4.88c-0.42,2.81-0.98,5.6-1.25,8.43
			c-0.14,1.44,0.38,2.92,0.36,4.38c-0.03,2.19-0.12,4.4-0.47,6.55c-0.24,1.44-0.57,2.56,0.37,4.04c1.5,2.39,0.25,4.73-1.21,6.92
			c1.79,2.07,1.92,4.1-0.06,6.14c-0.37,0.38-0.67,1.25-0.49,1.66c0.95,2.08-0.07,3.84-0.54,5.77
			C188.05,125.06,188.07,127.21,187.83,129.53z M104.06,168.83c0.42,0.03,0.8,0.18,0.99,0.05c2.51-1.62,5.34-1.57,8.03-1.1
			c3.91,0.68,7.77,1.69,11.58,2.77c1.85,0.53,2.91-0.36,4-1.46c0.41-0.41,0.7-0.94,1.1-1.48c0.91,2.1,0.09,4.04-2.35,4.84
			c-1.75,0.58-2.39,1.61-3.1,3.2c-1.83,4.07-4.8,7.5-9.38,8.05c-5.37,0.64-10.87,0.63-16.29,0.42c-4.77-0.19-9.07-1.75-11.17-6.7
			c-0.22-0.53-0.79-0.94-1.27-1.32c-1.59-1.29-3.25-2.51-4.79-3.85c-0.56-0.49-0.89-1.25-1.32-1.89c2.8,1.69,5.41,1.99,8.18,0.42
			c0.25-0.14,0.58-0.15,0.88-0.22c4.13-0.89,8.25-1.78,12.33-2.66c-0.23-1.35-0.47-2.76-0.73-4.31c-3.34,0.54-6.71,1.09-10.51,1.7
			c-0.33,0.36-0.99,1.33-1.88,1.99c-0.7,0.52-1.68,0.67-2.53,0.98c-0.09-1.05-0.4-2.15-0.2-3.14c0.26-1.25,1.31-2.38,1.39-3.61
			c0.16-2.54,1.72-3.35,3.69-2.99c2.79,0.5,5.36-0.01,8.08-0.38c2.21-0.3,2.75-1.09,2.36-3.64c-2.54,0-5.18-0.11-7.81,0.03
			c-4.03,0.2-6.21-1.29-6.68-5.28c-0.42-3.59,0.43-6.98,2.46-10.07c1.25-1.9,2.27-3.96,2.97-5.2c-0.93,0.7-2.34,1.87-3.86,2.88
			c-4.08,2.74-8.83,3.09-13.48,3.06c-5.75-0.03-11.5-0.68-16.68-1.02c0.2,1.13,0.68,2.8,0.77,4.49c0.34,6.14,0.43,12.29,0.82,18.42
			c0.6,9.42,2.39,18.72,6.64,27.09c3.59,7.06,8.52,13.45,13.04,20.01c0.58,0.84,2.28,1.38,3.41,1.3c4.1-0.31,8.18-0.92,12.26-1.46
			c0.6-0.08,1.15-0.42,1.75-0.56c1.84-0.42,3.69-1.04,5.55-1.12c3-0.13,6.01,0.95,8.99-0.53c1.12-0.56,2.55-0.53,3.85-0.69
			c0.51-0.07,1.11-0.09,1.55,0.12c1.69,0.79,3.33,1.69,4.99,2.54c1.43-0.29,2.88-0.21,4.32-0.04c1.77,0.21,3.52,0.49,5.28,0.74
			c1.13,0.16,2.27,0.29,3.39,0.47c2.74,0.45,5.91,2.04,8.12,1.17c6.5-2.56,11.56-7.29,14.68-13.66c2.73-5.57,5.34-11.23,7.59-17.01
			c2.16-5.55,4.69-11.19,5.45-17c1.19-9.06,0.85-18.26-3.19-26.86c-0.81-1.72-1.09-3.42,0.07-5.24c0.44-0.69,0.56-2.11,0.14-2.75
			c-1.26-1.94-2.86-3.67-4.38-5.55c-0.32,0.44-0.43,0.55-0.49,0.68c-0.13,0.28-0.26,0.56-0.35,0.85c-1.45,5.14-5.13,8.18-10,9.39
			c-3.34,0.83-6.95,0.78-10.44,0.82c-5.07,0.05-10.14-0.13-15.21-0.28c-6.8-0.19-10.58-4.81-10.09-10.57
			c0.1-1.2,0.02-2.42,0.02-3.61c-2.22-0.25-2.41-0.22-2.11,1.73c0.92,6.02,0.57,12.35,4.03,17.8c0.2,0.32,0.32,0.7,0.46,1.05
			c2.16,5.4-0.31,10.75-5.84,12.47c-2.81,0.87-5.67,1.57-8.51,2.35c0.73,1.89,2.96,3.56,3.85,2.74c1.78-1.64,3.32-0.81,5.06-0.06
			c0.75,0.32,1.7,0.29,2.55,0.23c1.87-0.13,3.62-0.2,4.72,1.8c0.47,0.85,1.27,1.53,1.89,2.3c1.01,1.28,2,2.57,3.02,3.88
			c-3.46,2.27-6.04,1.72-8.13-1.41c-1.28-1.93-3.81-2.65-5.95-1.8c-0.75,0.3-1.61,0.42-2.43,0.43c-1.45,0.02-3.58-0.71-4.2-0.03
			c-0.92,1.02-0.78,3-1.08,4.58C103.94,168.29,104,168.44,104.06,168.83z M55,97.78c2.62-2.57,5.89-2.23,9.16-2.64
			c4.69-0.59,9,0.18,13.36,1.47c5.04,1.5,10.18,3.08,13.29,7.66c2.42,3.56,4.18,7.56,6.32,11.52c4,0,8.64,0,13.56,0
			c0-2.14-0.11-3.98,0.03-5.79c0.23-2.96,0.29-6,2.27-8.5c1.24-1.56,2.45-3.17,3.82-4.61c8.45-8.89,23.29-11.79,35.58-5.96
			c2.52,1.2,4.92,2.82,7.03,4.65c1.89,1.63,1.86,3.68,0.72,5.28c-2.08-1.54-3.97-3.56-6.29-4.54c-11.07-4.67-22.09-6.36-32.29,2.22
			c-4.14,3.48-8.12,7.12-8.69,13.01c-0.44,4.5-0.43,4.5,4.42,4.31c0.23-1.38,0.52-2.79,0.71-4.23c0.62-4.69,1.15-5.61,5.82-5.94
			c9.19-0.64,18.4-1.1,27.61-1.18c5.92-0.05,10.24,3.13,11.03,8.19c0.63,4.07,4.13,5.08,6.21,7.68c-0.01-2.37,0.05-4.75-0.73-6.82
			c-0.77-2.04-2.38-3.76-3.62-5.63c0.97-0.49,2.01-0.99,3.02-1.53c4.19-2.25,6.28-5.97,5.55-10.61c-0.55-3.53-2.18-6.68-4.69-9.3
			c-2.19-2.29-4.84-4.21-4.6-8.01c0.22-3.35-1.88-5.17-4.74-6.64c-1.8-0.93-3.15-2.72-4.78-4.03c-0.46-0.37-1.24-0.64-1.79-0.53
			c-3.01,0.63-3,0.68-3.56-2.29c-1.72,0.04-3.35-0.1-3.87-2.3c-0.08-0.32-1.38-0.69-1.95-0.51c-1.68,0.53-3.23,1.43-4.9,1.98
			c-1.75,0.57-3.45,0.35-4.3-1.56c-0.89-1.99-2.27-2.27-4.13-1.57c-1.01,0.38-2.03,0.8-3.08,0.94c-0.75,0.1-1.97,0.02-2.27-0.44
			c-1.26-1.94-2.43-1.21-3.78-0.24c-1.22,0.88-2.18,0.92-2.8-0.83c-0.19-0.54-1.3-1.14-1.91-1.06c-1.02,0.13-1.96,0.83-2.96,1.18
			c-0.61,0.21-1.66,0.55-1.88,0.29c-1.64-1.91-3.08-0.75-4.9-0.26c-1.98,0.54-4.2-0.31-6.42,0.02c-0.79,0.12-2.06-0.5-3.3-0.23
			c-1.9,0.41-3.86,0.53-5.8,0.72c-3.28,0.32-6.6,0.31-9.47,2.38c-0.53,0.38-1.46,0.21-2.21,0.27c-1.12,0.09-2.25,0.11-3.36,0.25
			c-1.51,0.2-3.04,0.39-4.51,0.77c-1.02,0.27-2.12,0.67-2.9,1.34c-2.37,2.06-4.27,4.89-6.95,6.3c-4.08,2.15-5.96,5.48-6.66,9.53
			C53.53,87.09,52.46,92.3,55,97.78z M104.25,119.77c0,0.01,0,0.02,0,0.04c-1.15,0-2.31-0.01-3.46,0c-3.74,0.06-3.74,0.06-4.64,3.65
			c-0.07,0.3-0.25,0.57-0.31,0.87c-0.71,3.28-1.37,6.58-2.12,9.85c-0.51,2.22-1.04,4.44-1.74,6.61c-0.7,2.17-1.84,4.21-2.42,6.4
			c-0.86,3.25,1.2,5.57,4.56,5.5c1.46-0.03,3.01-0.3,4.36,0.09c5.13,1.5,9.64-0.08,14.07-2.4c4.67-2.45,5.64-5.37,3.72-10.28
			c-1.49-3.83-3.43-7.52-3.16-11.9c0.12-1.85-0.58-3.77-0.95-5.64c-0.41-2.04-1.41-3.22-3.77-2.82
			C107.05,119.96,105.63,119.77,104.25,119.77z M69.34,136.9c0.03,0.3,0.05,0.6,0.08,0.91c4.98-0.65,10.01-1.02,14.91-2.04
			c3.57-0.74,5.93-3.27,6.95-6.97c1.26-4.59,0.77-8.95-1.32-13.15c-2.08-4.18-3.67-6.79-8.65-6.17c-1.66,0.21-3.39,0.13-5.06-0.06
			c-5.44-0.6-10.42,1.34-15.52,2.64c-1.45,0.37-2.02,1.27-2.32,2.74c-1.31,6.41-1.09,12.75,0.23,19.15c0.44,2.12,1.45,2.9,3.34,2.94
			C64.43,136.95,66.88,136.9,69.34,136.9z M169.19,177.53c0.16,0.13,0.31,0.26,0.47,0.39c2.13-0.72,4.3-1.36,6.39-2.18
			c6.72-2.64,10.85-9.76,9.48-16.64c-0.9-4.53-0.2-8.51,2.94-12c4.85-5.39,2.56-10.01-1.56-13.52c-1.4-1.19-3.18-2.6-4.83-2.67
			c-2.67-0.11-5.4,0.73-8.07,1.34c-1.5,0.34-2.93,1.04-4.58,1.64c0.18,0.67,0.43,1.6,0.71,2.62c0.67-0.15,1.26-0.31,1.85-0.41
			c4.72-0.8,7.99,0.72,10.26,4.77c2.19,3.91,1.75,8.63-1.1,11.99c-0.59,0.7-1.09,1.48-1.62,2.24c-3.8,5.47-3.69,10.13,0.35,15.16
			c0.06,0.08-0.03,0.28-0.05,0.42c-2.87-0.2-5.02-2.54-5.15-5.63c-0.22-5.28,1.86-9.67,5.12-13.68c2.37-2.9,2.27-7.47,0-10.65
			c-1.38-1.94-4.79-2.44-8.45-1.2C174.55,152.37,174.98,165.1,169.19,177.53z M119.95,122.31c-0.94,5.66,1.54,8.87,7.16,9.06
			c5.38,0.19,10.76,0.31,16.14,0.41c2.82,0.05,5.68,0.28,8.46-0.05c4.66-0.55,6.44-3.16,5.8-7.79c-8.77-3.6-17.62-2.06-26.52-0.65
			C127.36,123.87,123.64,123.93,119.95,122.31z M157.68,122.68c0.27-0.02,0.55-0.04,0.82-0.06c0.07-1.62,0.3-3.26,0.17-4.86
			c-0.17-1.97-0.72-3.91-0.99-5.88c-0.48-3.56-0.89-4.46-5.24-4.46c-6.82-0.01-13.64,0.38-20.46,0.64c-2.68,0.1-5.37,0.23-8.04,0.5
			c-0.73,0.07-1.9,0.55-2.03,1.06c-0.94,3.72-1.67,7.5-2.47,11.26c0.23,0.09,0.45,0.17,0.68,0.26c0.41-0.28,0.83-0.54,1.21-0.85
			c7.31-5.93,15.97-7.45,24.91-6.64C151.52,114.1,155.83,117.14,157.68,122.68z M84.97,107.32c0.11-0.26,0.23-0.52,0.34-0.78
			c-1.42-0.79-2.75-1.81-4.26-2.32c-2.82-0.96-5.7-1.98-8.63-2.34c-5.33-0.65-10.73-0.95-15.88,1.22c-0.63,0.27-1.56,0.88-1.59,1.37
			c-0.15,2.78-0.07,5.58-0.07,8.26c1.34-0.92,2.27-1.93,3.41-2.28c6.23-1.86,12.43-3.86,19.11-3.18
			C79.9,107.53,82.45,107.32,84.97,107.32z M89.85,175c0.39,3.9,2.75,5.3,5.16,5.65c4.51,0.66,9.15,1.08,13.68,0.78
			c3.25-0.22,6.47-1.6,9.57-2.81c2.01-0.79,3.02-2.74,3.62-5.16C111.47,177.82,100.94,178.16,89.85,175z M116.13,171.98
			c-3.11-2.34-6.84-2.45-9.83-0.51c-0.6,0.39-1.72,0.65-2.27,0.35c-3.6-1.96-6.77-1-9.86,1.17
			C101.54,174.7,108.85,175.36,116.13,171.98z M132.08,120.77c0.19-1.31,0.33-2.29,0.55-3.8c-2.74,1.25-5.03,2.3-7.31,3.34
			c0.07,0.15,0.15,0.3,0.22,0.46C127.63,120.77,129.72,120.77,132.08,120.77z M152.75,119.99c0.11-0.24,0.22-0.48,0.34-0.72
			c-2.34-0.78-4.68-1.55-7.02-2.33c-0.18,0.21-0.36,0.42-0.54,0.63c0.54,0.58,1,1.52,1.65,1.67
			C148.99,119.66,150.89,119.76,152.75,119.99z"/>
		<path class="st2" d="M107.8,198.21c-1.6-1.94-3.09-3.74-4.66-5.64c3.15-2.03,6.35-1.01,10.17-1.33
			C111.21,193.91,109.54,196.01,107.8,198.21z"/>
		<path class="st2" d="M135.42,168c-1.4-2.08-2.68-4-4.02-5.99C133.93,161.72,136.27,165.24,135.42,168z"/>
		<path class="st2" d="M76.06,169.27c-1.02-3.38-0.05-5.11,2.69-5.16C77.89,165.78,77.09,167.31,76.06,169.27z"/>
		<path class="st2" d="M89.83,125.62c-2.29,0.16-4.59,0.26-6.87,0.5c-7.14,0.75-14.27,1.58-21.41,2.32
			c-0.76,0.08-1.57-0.25-2.35-0.39c0.16-0.78,0.12-1.69,0.51-2.33c2.92-4.77,6.64-7.87,12.84-7.59c4.49,0.2,8.86,0.3,12.78,2.66
			c1.72,1.04,3.13,2.59,4.68,3.91C89.94,125,89.89,125.31,89.83,125.62z M70.92,124.94c0.2-1.41,0.38-2.73,0.57-4.07
			c-5.49,0.07-6.59,0.65-8.18,4.53C65.81,125.25,68.35,125.1,70.92,124.94z"/>
		<path class="st2" d="M78.3,131.19c2.59-1.28,5.08-2.55,7.63-3.71c0.45-0.2,1.18-0.08,1.63,0.17c0.2,0.11,0.22,0.99,0.02,1.35
			c-1.03,1.86-7.4,3.42-9.22,2.3C78.21,131.21,78.18,130.93,78.3,131.19z"/>
		<path class="st2" d="M132.28,128.25c-2.18-0.17-4.39-0.2-6.53-0.6c-0.58-0.11-0.95-1.36-1.41-2.09c0.76-0.06,1.59-0.34,2.28-0.14
			c1.95,0.57,3.85,1.35,5.77,2.04C132.35,127.72,132.32,127.98,132.28,128.25z"/>
	</g>
</g>
</svg>
