<?xml version="1.0" encoding="utf-8"?>
<!-- Generator: Adobe Illustrator 23.0.3, SVG Export Plug-In . SVG Version: 6.00 Build 0)  -->
<svg version="1.1" id="圖層_1" xmlns="http://www.w3.org/2000/svg" xmlns:xlink="http://www.w3.org/1999/xlink" x="0px" y="0px"
	 viewBox="0 0 135.44 135.44" style="enable-background:new 0 0 135.44 135.44;" xml:space="preserve">
<style type="text/css">
	.st0{fill:#FFE5B5;}
	.st1{clip-path:url(#SVGID_2_);fill:#FFE5B5;}
	.st2{opacity:0.7;fill:#41220E;}
	.st3{fill:#562B10;}
	.st4{fill:none;}
	.st5{fill:#E99F66;}
	.st6{fill:none;stroke:#000000;stroke-width:2;stroke-miterlimit:10;}
	.st7{opacity:0.4;fill:#41220E;}
	.st8{opacity:0.2;fill:#41220E;}
	.st9{opacity:0.1;fill:#41220E;}
	.st10{opacity:0.3;fill:#41220E;}
	.st11{fill:none;stroke:#562B10;stroke-width:2.5734;stroke-miterlimit:10;}
	.st12{fill:#41220E;}
	.st13{fill:#FFFFFF;}
	.st14{fill:#030104;}
	.st15{fill:#47598D;}
	.st16{opacity:0.5;fill:#C7E5F6;}
	.st17{fill:#B7DDC8;stroke:#562B10;stroke-width:3.0391;stroke-miterlimit:10;}
	.st18{opacity:0.5;fill:#FFE5B5;}
	.st19{clip-path:url(#SVGID_24_);}
	.st20{fill:#E99F66;stroke:#562B10;stroke-width:2.016;stroke-miterlimit:10;}
	.st21{fill:#B7DD9A;stroke:#562B10;stroke-width:3.0391;stroke-miterlimit:10;}
	.st22{fill:url(#SVGID_27_);}
	.st23{fill:url(#SVGID_28_);}
	.st24{fill:url(#SVGID_29_);}
	.st25{fill:url(#SVGID_30_);}
	.st26{fill:url(#SVGID_31_);}
	.st27{fill:url(#SVGID_32_);}
	.st28{fill:url(#SVGID_33_);}
	.st29{fill:url(#SVGID_34_);}
	.st30{fill:#7F1116;}
	.st31{fill:#70141B;}
	.st32{fill:#B0242B;}
	.st33{fill:url(#SVGID_35_);}
	.st34{fill:url(#SVGID_36_);}
	.st35{fill:url(#SVGID_37_);}
	.st36{fill:url(#SVGID_38_);}
	.st37{fill:url(#SVGID_39_);}
	.st38{fill:url(#SVGID_40_);}
	.st39{fill:url(#SVGID_41_);}
	.st40{fill:url(#SVGID_42_);}
</style>
<g>
	<circle class="st11" cx="67.72" cy="67.72" r="66.43"/>
	<g>
		<path class="st3" d="M27.86,30.84l5.74,10.05c0.19,0.34,0.52,0.59,0.9,0.68l5.36,1.34l18.37,18.37l2.03-2.03L41.59,40.59
			c-0.18-0.18-0.41-0.31-0.67-0.38l-5.15-1.29l-4.89-8.56l4.19-4.19l8.56,4.89l1.29,5.15c0.06,0.25,0.19,0.48,0.38,0.67l18.66,18.66
			l2.03-2.03L47.63,35.14l-1.34-5.35c-0.1-0.38-0.34-0.7-0.68-0.9l-10.05-5.74c-0.56-0.32-1.27-0.22-1.72,0.23l-5.74,5.74
			C27.64,29.57,27.54,30.28,27.86,30.84z"/>
		<path class="st3" d="M87.53,51.23L55.95,82.81l-2.03-2.03L85.5,49.2L87.53,51.23z"/>
		<path class="st3" d="M50.43,83.93c-0.26-0.43-0.73-0.7-1.23-0.7h-8.61c-0.5,0-0.97,0.26-1.23,0.7l-4.31,7.18
			c-0.27,0.45-0.27,1.02,0,1.48l4.31,7.18c0.26,0.43,0.73,0.7,1.23,0.7h8.61c0.5,0,0.97-0.26,1.23-0.7l4.31-7.18
			c0.27-0.46,0.27-1.02,0-1.48L50.43,83.93z M48.39,97.58H41.4l-3.44-5.74l3.44-5.74h6.99l3.44,5.74L48.39,97.58z"/>
		<path class="st3" d="M96.56,57.39c9.48,0.03,17.19-7.63,17.22-17.11c0-1.44-0.17-2.88-0.53-4.28c-0.19-0.77-0.97-1.24-1.74-1.05
			c-0.25,0.06-0.48,0.19-0.67,0.38l-8.93,8.93l-7.09-2.36l-2.36-7.09l8.93-8.94c0.56-0.56,0.56-1.47,0-2.03
			c-0.18-0.18-0.42-0.32-0.67-0.38c-9.19-2.33-18.53,3.24-20.86,12.43c-0.35,1.39-0.53,2.83-0.53,4.27c0,1.13,0.12,2.26,0.35,3.36
			L48.25,74.97c-1.11-0.23-2.23-0.34-3.36-0.35c-9.51,0-17.22,7.71-17.22,17.22c0,9.51,7.71,17.22,17.22,17.22
			c9.51,0,17.22-7.71,17.22-17.22c0-1.13-0.12-2.26-0.35-3.36l7.53-7.53l3.29,3.29c0.56,0.56,1.47,0.56,2.03,0l0.72-0.72
			c0.63-0.63,1.65-0.63,2.28,0c0.63,0.63,0.63,1.65,0,2.27c0,0,0,0,0,0l-0.72,0.72c-0.56,0.56-0.56,1.47,0,2.03l17.12,17.12
			c4.5,4.54,11.84,4.58,16.38,0.07c4.54-4.5,4.58-11.84,0.07-16.38c-0.02-0.02-0.05-0.05-0.07-0.07L93.27,72.17
			c-0.56-0.56-1.47-0.56-2.03,0l-0.72,0.72c-0.63,0.63-1.65,0.63-2.28,0c-0.63-0.63-0.63-1.65,0-2.27c0,0,0,0,0,0l0.72-0.72
			c0.56-0.56,0.56-1.47,0-2.03l-3.29-3.29l7.53-7.53C94.31,57.27,95.43,57.39,96.56,57.39z M102.2,106.2
			c-1.04,0-2.08-0.19-3.05-0.56l11.21-11.21c1.69,4.5-0.58,9.52-5.08,11.21C104.29,106.01,103.25,106.2,102.2,106.2z M85.94,68.89
			c-1.59,1.9-1.34,4.72,0.56,6.31c1.67,1.4,4.09,1.4,5.76,0l16.11,16.12c0.17,0.18,0.34,0.36,0.5,0.55l-12.27,12.27
			c-0.19-0.16-0.37-0.32-0.55-0.5L79.92,87.52c1.59-1.9,1.34-4.72-0.56-6.31c-1.67-1.4-4.1-1.4-5.76,0l-2.3-2.3L83.65,66.6
			L85.94,68.89z M91.74,54.46L59.18,87.01c-0.36,0.36-0.5,0.87-0.38,1.36c1.97,7.73-2.7,15.6-10.44,17.57
			c-7.73,1.97-15.6-2.7-17.57-10.44c-1.97-7.73,2.7-15.6,10.44-17.57c2.34-0.6,4.79-0.6,7.13,0c0.49,0.12,1.01-0.02,1.36-0.38
			L82.28,45c0.36-0.36,0.5-0.87,0.38-1.36C80.7,36,85.31,28.21,92.95,26.26c1.44-0.37,2.94-0.51,4.43-0.42l-7.57,7.57
			c-0.38,0.38-0.52,0.95-0.35,1.47l2.87,8.61c0.14,0.43,0.48,0.76,0.91,0.91l8.61,2.87c0.51,0.17,1.08,0.04,1.47-0.35l7.57-7.57
			c0.02,0.27,0.03,0.54,0.03,0.81c0.04,7.89-6.32,14.31-14.21,14.35c-1.22,0.01-2.43-0.14-3.62-0.45
			C92.61,53.96,92.09,54.1,91.74,54.46L91.74,54.46L91.74,54.46z"/>
		<path class="st3" d="M101.89,95.13l-2.03,2.03L85.5,82.81l2.03-2.03L101.89,95.13z"/>
	</g>
</g>
</svg>
