<?xml version="1.0" encoding="utf-8"?>
<!-- Generator: Adobe Illustrator 23.0.3, SVG Export Plug-In . SVG Version: 6.00 Build 0)  -->
<svg version="1.1" id="圖層_1" xmlns="http://www.w3.org/2000/svg" xmlns:xlink="http://www.w3.org/1999/xlink" x="0px" y="0px"
	 viewBox="0 0 135.44 135.44" style="enable-background:new 0 0 135.44 135.44;" xml:space="preserve">
<style type="text/css">
	.st0{fill:#FFE5B5;}
	.st1{clip-path:url(#SVGID_2_);fill:#FFE5B5;}
	.st2{opacity:0.7;fill:#41220E;}
	.st3{fill:#562B10;}
	.st4{fill:none;}
	.st5{fill:#E99F66;}
	.st6{fill:none;stroke:#000000;stroke-width:2;stroke-miterlimit:10;}
	.st7{opacity:0.4;fill:#41220E;}
	.st8{opacity:0.2;fill:#41220E;}
	.st9{opacity:0.1;fill:#41220E;}
	.st10{opacity:0.3;fill:#41220E;}
	.st11{fill:none;stroke:#562B10;stroke-width:2.5734;stroke-miterlimit:10;}
	.st12{fill:#41220E;}
	.st13{fill:#FFFFFF;}
	.st14{fill:#030104;}
	.st15{fill:#47598D;}
	.st16{opacity:0.5;fill:#C7E5F6;}
	.st17{fill:#B7DDC8;stroke:#562B10;stroke-width:3.0391;stroke-miterlimit:10;}
	.st18{opacity:0.5;fill:#FFE5B5;}
	.st19{clip-path:url(#SVGID_24_);}
	.st20{fill:#E99F66;stroke:#562B10;stroke-width:2.016;stroke-miterlimit:10;}
	.st21{fill:#B7DD9A;stroke:#562B10;stroke-width:3.0391;stroke-miterlimit:10;}
	.st22{fill:url(#SVGID_27_);}
	.st23{fill:url(#SVGID_28_);}
	.st24{fill:url(#SVGID_29_);}
	.st25{fill:url(#SVGID_30_);}
	.st26{fill:url(#SVGID_31_);}
	.st27{fill:url(#SVGID_32_);}
	.st28{fill:url(#SVGID_33_);}
	.st29{fill:url(#SVGID_34_);}
	.st30{fill:#7F1116;}
	.st31{fill:#70141B;}
	.st32{fill:#B0242B;}
	.st33{fill:url(#SVGID_35_);}
	.st34{fill:url(#SVGID_36_);}
	.st35{fill:url(#SVGID_37_);}
	.st36{fill:url(#SVGID_38_);}
	.st37{fill:url(#SVGID_39_);}
	.st38{fill:url(#SVGID_40_);}
	.st39{fill:url(#SVGID_41_);}
	.st40{fill:url(#SVGID_42_);}
</style>
<g>
	<circle class="st11" cx="67.72" cy="67.72" r="66.43"/>
	<g>
		<g>
			<g>
				<path class="st3" d="M29.85,40.43c-0.46-0.3-1.04-0.36-1.55-0.14l-11.46,4.91c-0.6,0.26-0.99,0.85-0.99,1.5
					c0,0.65,0.39,1.25,0.99,1.5l11.46,4.91c0.21,0.09,0.43,0.13,0.64,0.13c0.32,0,0.63-0.09,0.9-0.27c0.46-0.3,0.74-0.82,0.74-1.37
					V41.8C30.59,41.25,30.31,40.73,29.85,40.43z M27.31,49.14l-5.67-2.43l5.67-2.43V49.14z"/>
			</g>
		</g>
		<g>
			<g>
				<path class="st3" d="M55.14,22.15h-8.19c-6.32,0-11.46,5.14-11.46,11.46c0,0.9,0.73,1.64,1.64,1.64h8.19
					c6.32,0,11.46-5.14,11.46-11.46C56.78,22.89,56.05,22.15,55.14,22.15z M45.32,31.98h-6.38c0.76-3.73,4.07-6.55,8.02-6.55h6.38
					C52.58,29.16,49.27,31.98,45.32,31.98z"/>
			</g>
		</g>
		<g>
			<g>
				<path class="st3" d="M40.41,40.16c-2.71,0-4.91,2.2-4.91,4.91s2.2,4.91,4.91,4.91c2.71,0,4.91-2.2,4.91-4.91
					C45.32,42.37,43.12,40.16,40.41,40.16z M40.41,46.71c-0.9,0-1.64-0.73-1.64-1.64s0.73-1.64,1.64-1.64c0.9,0,1.64,0.73,1.64,1.64
					S41.31,46.71,40.41,46.71z"/>
			</g>
		</g>
		<g>
			<g>
				<rect x="58.42" y="105.65" class="st3" width="3.27" height="13.1"/>
			</g>
		</g>
		<g>
			<g>
				<rect x="51.87" y="117.11" class="st3" width="26.19" height="3.27"/>
			</g>
		</g>
		<g>
			<g>
				<rect x="68.24" y="105.65" class="st3" width="3.27" height="13.1"/>
			</g>
		</g>
		<g>
			<g>
				<rect x="60.06" y="110.56" class="st3" width="4.91" height="3.27"/>
			</g>
		</g>
		<g>
			<g>
				<rect x="69.88" y="110.56" class="st3" width="4.91" height="3.27"/>
			</g>
		</g>
		<g>
			<g>
				<path class="st3" d="M29.77,50.21c-0.5-0.29-1.13-0.29-1.64,0l-8.58,4.91c-2.25,1.3-3.66,3.71-3.7,6.33v0.76
					c-0.02,1.97,0.73,3.82,2.11,5.23c1.38,1.4,3.22,2.19,5.2,2.2h0.05c4.06,0,7.37-3.3,7.37-7.37V51.62
					C30.59,51.04,30.28,50.5,29.77,50.21z M27.31,62.26c0,2.26-1.84,4.09-4.09,4.09v1.64l-0.03-1.64c-1.09-0.01-2.12-0.44-2.88-1.22
					c-0.77-0.78-1.18-1.81-1.17-2.92v-0.75c0.02-1.45,0.81-2.79,2.06-3.51l6.13-3.51V62.26z"/>
			</g>
		</g>
		<g>
			<g>
				<path class="st3" d="M114.08,33.61v-1.64H99.35c0,0,0,0,0,0c-11.56,0-22.25,6.75-27.22,17.19l-7.15,15.02L53.54,40.2
					c-2.11-4.64-6.57-7.79-11.69-8.22c-3.66-0.23-7.17,0.98-9.91,3.4c-2.74,2.42-4.38,5.76-4.61,9.41
					c-0.02,0.29-0.03,0.59-0.03,0.88v24.79c0.01,20.3,16.53,36.82,36.83,36.83c19.73,0,35.75-17.59,36.78-32.83
					c7.38-0.79,13.15-7.06,13.15-14.65v-1.64h-5.48c3.34-2.7,5.48-6.84,5.48-11.46v-1.64h-5.48
					C111.94,42.37,114.08,38.24,114.08,33.61z M110.69,48.35c-0.8,5.55-5.58,9.82-11.34,9.82v3.27h11.34
					c-0.8,5.55-5.58,9.82-11.34,9.82h-1.64v1.64c0,14-15.49,31.1-33.56,31.1C45.65,104,30.6,88.94,30.59,70.45V45.66
					c0-0.22,0.01-0.45,0.02-0.67c0.17-2.78,1.42-5.32,3.5-7.16c1.92-1.69,4.34-2.61,6.85-2.61c0.21,0,0.43,0.01,0.65,0.02
					c3.9,0.33,7.33,2.75,8.96,6.34l14.4,30.21l10.11-21.23c4.43-9.31,13.96-15.32,24.27-15.32c0,0,0,0,0,0h11.34
					c-0.8,5.55-5.58,9.82-11.34,9.82v3.27L110.69,48.35L110.69,48.35z"/>
			</g>
		</g>
		<g>
			<g>
				<path class="st3" d="M69.88,71.27v3.27h19.24c-1.51,4.77-6,8.18-11.14,8.19L77.95,86c0.01,0,0.02,0,0.03,0h4.59
					c-1.51,4.78-6.01,8.19-11.15,8.19c0,0-0.01,0-0.01,0h-6.43c-11.73,0-21.28-9.55-21.28-21.28v-1.64h-3.27v1.64
					c0,13.54,11.02,24.56,24.56,24.56h6.43c0.01,0,0.01,0,0.02,0c7.41,0,13.78-5.53,14.82-12.87l0.17-1.22
					c3.37-2.31,5.77-5.97,6.38-10.24l0.26-1.87L69.88,71.27L69.88,71.27z"/>
			</g>
		</g>
	</g>
</g>
</svg>
