<?xml version="1.0" encoding="utf-8"?>
<!-- Generator: Adobe Illustrator 23.0.3, SVG Export Plug-In . SVG Version: 6.00 Build 0)  -->
<svg version="1.1" id="圖層_1" xmlns="http://www.w3.org/2000/svg" xmlns:xlink="http://www.w3.org/1999/xlink" x="0px" y="0px"
	 viewBox="0 0 135.44 135.44" style="enable-background:new 0 0 135.44 135.44;" xml:space="preserve">
<style type="text/css">
	.st0{fill:#FFE5B5;}
	.st1{clip-path:url(#SVGID_2_);fill:#FFE5B5;}
	.st2{opacity:0.7;fill:#41220E;}
	.st3{fill:#562B10;}
	.st4{fill:none;}
	.st5{fill:#E99F66;}
	.st6{fill:none;stroke:#000000;stroke-width:2;stroke-miterlimit:10;}
	.st7{opacity:0.4;fill:#41220E;}
	.st8{opacity:0.2;fill:#41220E;}
	.st9{opacity:0.1;fill:#41220E;}
	.st10{opacity:0.3;fill:#41220E;}
	.st11{fill:none;stroke:#562B10;stroke-width:2.5734;stroke-miterlimit:10;}
	.st12{fill:#41220E;}
	.st13{fill:#FFFFFF;}
	.st14{fill:#030104;}
	.st15{fill:#47598D;}
	.st16{opacity:0.5;fill:#C7E5F6;}
	.st17{fill:#B7DDC8;stroke:#562B10;stroke-width:3.0391;stroke-miterlimit:10;}
	.st18{opacity:0.5;fill:#FFE5B5;}
	.st19{clip-path:url(#SVGID_24_);}
	.st20{fill:#E99F66;stroke:#562B10;stroke-width:2.016;stroke-miterlimit:10;}
	.st21{fill:#B7DD9A;stroke:#562B10;stroke-width:3.0391;stroke-miterlimit:10;}
	.st22{fill:url(#SVGID_27_);}
	.st23{fill:url(#SVGID_28_);}
	.st24{fill:url(#SVGID_29_);}
	.st25{fill:url(#SVGID_30_);}
	.st26{fill:url(#SVGID_31_);}
	.st27{fill:url(#SVGID_32_);}
	.st28{fill:url(#SVGID_33_);}
	.st29{fill:url(#SVGID_34_);}
	.st30{fill:#7F1116;}
	.st31{fill:#70141B;}
	.st32{fill:#B0242B;}
	.st33{fill:url(#SVGID_35_);}
	.st34{fill:url(#SVGID_36_);}
	.st35{fill:url(#SVGID_37_);}
	.st36{fill:url(#SVGID_38_);}
	.st37{fill:url(#SVGID_39_);}
	.st38{fill:url(#SVGID_40_);}
	.st39{fill:url(#SVGID_41_);}
	.st40{fill:url(#SVGID_42_);}
</style>
<g>
	<circle class="st11" cx="67.72" cy="67.72" r="66.43"/>
	<g>
		<path class="st3" d="M106.74,80.38c-0.01-0.01-0.02-0.02-0.03-0.03c-3.56-3.55-8.29-5.5-13.32-5.5c-2.09,0-4.12,0.34-6.04,0.99
			c4.25-9.12,2.62-20.32-4.89-27.84c-4.65-4.65-10.83-7.21-17.4-7.21c-3.67,0-7.21,0.8-10.44,2.31c2.21-6.58,0.7-14.15-4.54-19.39
			c-1.41-1.41-3.27-2.18-5.26-2.18c-1.99,0-3.86,0.77-5.26,2.18c-1.62,1.63-2.34,3.82-2.14,5.95c-0.23-0.02-0.46-0.03-0.69-0.03
			c-1.99,0-3.86,0.77-5.26,2.18c-1.63,1.62-2.34,3.82-2.14,5.95c-0.23-0.02-0.46-0.03-0.69-0.03c-1.99,0-3.86,0.77-5.26,2.18
			c-1.41,1.41-2.18,3.27-2.18,5.26c0,1.99,0.77,3.86,2.18,5.26c3.57,3.57,8.31,5.53,13.36,5.53c2.08,0,4.11-0.34,6.02-0.98
			c-1.51,3.22-2.3,6.76-2.3,10.42c0,6.57,2.56,12.75,7.21,17.4c4.65,4.65,10.83,7.21,17.41,7.21c3.67,0,7.21-0.8,10.44-2.31
			c-2.2,6.57-0.7,14.12,4.5,19.35c0.01,0.01,0.02,0.02,0.03,0.03c1.41,1.41,3.27,2.18,5.26,2.18c1.99,0,3.86-0.77,5.26-2.18
			c1.41-1.41,2.18-3.27,2.18-5.26c0-0.23-0.01-0.46-0.03-0.68c0.23,0.02,0.45,0.03,0.68,0.03c1.99,0,3.86-0.77,5.26-2.18
			c1.41-1.41,2.18-3.27,2.18-5.26c0-0.23-0.01-0.46-0.03-0.68c0.23,0.02,0.45,0.03,0.68,0.03h0c1.99,0,3.86-0.77,5.26-2.18
			C109.64,88,109.64,83.28,106.74,80.38z M25.79,48c-0.76-0.76-1.17-1.76-1.17-2.83c0-1.07,0.42-2.08,1.17-2.83
			c0.76-0.76,1.76-1.17,2.83-1.17c1.07,0,2.08,0.42,2.83,1.17c0.67,0.67,1.76,0.67,2.43,0c0.67-0.67,0.67-1.76,0-2.43
			c-1.56-1.56-1.56-4.1,0-5.67c0.76-0.76,1.76-1.17,2.83-1.17c1.07,0,2.08,0.42,2.83,1.17c0.67,0.67,1.76,0.67,2.43,0
			c0.67-0.67,0.67-1.76,0-2.43c-1.56-1.56-1.56-4.1,0-5.67c0.76-0.76,1.76-1.17,2.83-1.17c1.07,0,2.08,0.42,2.83,1.17
			c5.17,5.17,5.9,13.12,2.2,19.08l-0.58-7.38c-0.05-0.71-0.67-1.24-1.38-1.18c-0.71,0.06-1.24,0.68-1.18,1.38l0.61,7.79l-3.61-3.61
			c-0.5-0.5-1.32-0.5-1.82,0c-0.5,0.5-0.5,1.32,0,1.82l3.61,3.61l-7.79-0.61c-0.71-0.06-1.33,0.47-1.38,1.18
			c-0.06,0.71,0.47,1.33,1.18,1.38l7.39,0.58c-2.43,1.52-5.23,2.33-8.16,2.33C32.59,52.52,28.71,50.92,25.79,48z M50.08,80.38
			c-4-4-6.2-9.32-6.2-14.97s2.2-10.97,6.2-14.97c4-4,9.32-6.2,14.98-6.2c5.66,0,10.97,2.2,14.97,6.2c8.26,8.26,8.26,21.69,0,29.95
			c-4,4-9.32,6.2-14.97,6.2C59.4,86.58,54.08,84.38,50.08,80.38z M104.31,88.47c-0.76,0.76-1.76,1.17-2.83,1.17
			c-1.07,0-2.08-0.42-2.83-1.17c-0.67-0.67-1.76-0.67-2.43,0c-0.34,0.34-0.5,0.78-0.5,1.21c0,0.44,0.17,0.88,0.5,1.21
			c0.76,0.76,1.17,1.76,1.17,2.83c0,1.07-0.42,2.08-1.17,2.83c-0.76,0.76-1.76,1.17-2.83,1.17s-2.08-0.42-2.83-1.17
			c-0.67-0.67-1.76-0.67-2.43,0c-0.34,0.34-0.5,0.78-0.5,1.21s0.17,0.88,0.5,1.21c0.76,0.76,1.17,1.76,1.17,2.83
			s-0.42,2.08-1.17,2.83c-0.76,0.76-1.76,1.17-2.83,1.17c-1.06,0-2.05-0.41-2.81-1.15c-0.01-0.01-0.02-0.02-0.03-0.03
			c-5.17-5.17-5.9-13.12-2.2-19.08l0.58,7.38c0.05,0.68,0.62,1.19,1.28,1.19c0.03,0,0.07,0,0.1,0c0.71-0.06,1.24-0.68,1.18-1.38
			l-0.61-7.79l3.61,3.61c0.25,0.25,0.58,0.38,0.91,0.38c0.33,0,0.66-0.13,0.91-0.38c0.5-0.5,0.5-1.32,0-1.82l-3.61-3.61l7.79,0.61
			c0.03,0,0.07,0,0.1,0c0.67,0,1.23-0.51,1.28-1.19c0.06-0.71-0.47-1.33-1.18-1.38l-7.38-0.58c2.43-1.52,5.23-2.33,8.16-2.33
			c4.13,0,8.01,1.61,10.93,4.53c0.01,0.01,0.02,0.02,0.03,0.03C105.88,84.4,105.87,86.92,104.31,88.47z"/>
	</g>
</g>
</svg>
