<?xml version="1.0" encoding="utf-8"?>
<!-- Generator: Adobe Illustrator 23.0.3, SVG Export Plug-In . SVG Version: 6.00 Build 0)  -->
<svg version="1.1" id="圖層_1" xmlns="http://www.w3.org/2000/svg" xmlns:xlink="http://www.w3.org/1999/xlink" x="0px" y="0px"
	 viewBox="0 0 29.6 29.6" style="enable-background:new 0 0 29.6 29.6;" xml:space="preserve">
<style type="text/css">
	.st0{fill:#FFE5B5;}
	.st1{clip-path:url(#SVGID_2_);fill:#FFE5B5;}
	.st2{opacity:0.7;fill:#41220E;}
	.st3{fill:#562B10;}
	.st4{fill:none;}
	.st5{fill:#E99F66;}
	.st6{fill:none;stroke:#000000;stroke-width:2;stroke-miterlimit:10;}
	.st7{opacity:0.4;fill:#41220E;}
	.st8{opacity:0.2;fill:#41220E;}
	.st9{opacity:0.1;fill:#41220E;}
	.st10{opacity:0.3;fill:#41220E;}
	.st11{fill:none;stroke:#562B10;stroke-width:2.5734;stroke-miterlimit:10;}
	.st12{fill:#41220E;}
	.st13{fill:#FFFFFF;}
	.st14{fill:#030104;}
	.st15{fill:#47598D;}
	.st16{opacity:0.5;fill:#C7E5F6;}
	.st17{fill:#B7DDC8;stroke:#562B10;stroke-width:3.0391;stroke-miterlimit:10;}
	.st18{opacity:0.5;fill:#FFE5B5;}
	.st19{clip-path:url(#SVGID_24_);}
	.st20{fill:#E99F66;stroke:#562B10;stroke-width:2.016;stroke-miterlimit:10;}
	.st21{fill:#B7DD9A;stroke:#562B10;stroke-width:3.0391;stroke-miterlimit:10;}
	.st22{fill:url(#SVGID_27_);}
	.st23{fill:url(#SVGID_28_);}
	.st24{fill:url(#SVGID_29_);}
	.st25{fill:url(#SVGID_30_);}
	.st26{fill:url(#SVGID_31_);}
	.st27{fill:url(#SVGID_32_);}
	.st28{fill:url(#SVGID_33_);}
	.st29{fill:url(#SVGID_34_);}
	.st30{fill:#7F1116;}
	.st31{fill:#70141B;}
	.st32{fill:#B0242B;}
	.st33{fill:url(#SVGID_35_);}
	.st34{fill:url(#SVGID_36_);}
	.st35{fill:url(#SVGID_37_);}
	.st36{fill:url(#SVGID_38_);}
	.st37{fill:url(#SVGID_39_);}
	.st38{fill:url(#SVGID_40_);}
	.st39{fill:url(#SVGID_41_);}
	.st40{fill:url(#SVGID_42_);}
</style>
<g>
	<circle class="st13" cx="14.78" cy="14.8" r="11.68"/>
	<g>
		<g>
			<path class="st14" d="M14.6,0C6.43,0.11-0.11,6.82,0,15c0.11,8.17,6.82,14.71,15,14.6c8.17-0.11,14.71-6.82,14.6-15
				C29.49,6.43,22.77-0.11,14.6,0z M14.96,26.48C8.5,26.57,3.2,21.41,3.12,14.96C3.03,8.5,8.19,3.2,14.64,3.12
				C21.1,3.03,26.4,8.19,26.48,14.64C26.57,21.1,21.41,26.4,14.96,26.48z M11.18,17.31c-0.62,0-1.1-0.23-1.42-0.68
				c-0.32-0.46-0.48-1.06-0.48-1.82c0-1.67,0.63-2.51,1.9-2.51c0.25,0,0.53,0.08,0.82,0.25c0.3,0.17,0.54,0.46,0.75,0.89l1.9-0.99
				c-0.76-1.37-2.02-2.05-3.77-2.05c-1.2,0-2.19,0.4-2.97,1.19c-0.79,0.79-1.18,1.87-1.18,3.22c0,1.38,0.39,2.47,1.17,3.24
				s1.8,1.16,3.07,1.16c0.79,0,1.52-0.2,2.18-0.6c0.66-0.4,1.17-0.94,1.55-1.63l-1.75-0.89C12.59,16.9,12.01,17.31,11.18,17.31z
				 M19.36,17.31c-0.62,0-1.1-0.23-1.42-0.68c-0.32-0.46-0.48-1.06-0.48-1.82c0-1.67,0.63-2.51,1.9-2.51c0.27,0,0.55,0.08,0.85,0.25
				c0.3,0.17,0.55,0.46,0.75,0.89l1.87-0.99c-0.74-1.37-1.99-2.05-3.75-2.05c-1.2,0-2.19,0.4-2.98,1.19
				c-0.78,0.79-1.18,1.87-1.18,3.22c0,1.38,0.38,2.47,1.15,3.24c0.77,0.78,1.79,1.16,3.08,1.16c0.78,0,1.49-0.2,2.15-0.6
				c0.66-0.4,1.18-0.94,1.57-1.63l-1.77-0.89C20.77,16.9,20.19,17.31,19.36,17.31z"/>
		</g>
	</g>
</g>
</svg>
