<?xml version="1.0" encoding="utf-8"?>
<!-- Generator: Adobe Illustrator 23.0.3, SVG Export Plug-In . SVG Version: 6.00 Build 0)  -->
<svg version="1.1" id="圖層_1" xmlns="http://www.w3.org/2000/svg" xmlns:xlink="http://www.w3.org/1999/xlink" x="0px" y="0px"
	 viewBox="0 0 241.77 241.77" style="enable-background:new 0 0 241.77 241.77;" xml:space="preserve">
<style type="text/css">
	.st0{fill:#FFE2B2;}
	.st1{fill:none;stroke:#562B10;stroke-width:3;stroke-miterlimit:10;}
	.st2{fill:#562B10;}
	.st3{opacity:0.7;fill:#41220E;}
	.st4{fill:none;stroke:#562B10;stroke-width:11;stroke-linecap:round;stroke-linejoin:round;stroke-miterlimit:10;}
</style>
<g>
	<circle class="st1" cx="120.89" cy="120.89" r="119.39"/>
	<g>
		<path class="st2" d="M176.38,170.37c-0.12,6.1-1.31,11.86-3.88,17.23c-5.09,10.64-12.22,19.01-23.92,23.07
			c-7.51,2.6-14.72,6.02-22.58,7.64c-9.78,2.02-19.15,0.23-28.4-2.75c-3.61-1.16-7.11-2.69-10.66-4.06
			c-5.74-2.22-9.96-6.42-14.05-10.79c-5.12-5.47-9.17-11.63-11.28-18.86c-0.9-3.08-1.27-6.32-1.68-9.52
			c-0.16-1.23-0.49-1.97-1.66-2.42c-0.93-0.36-1.82-0.87-2.64-1.45c-4.7-3.37-6.64-8.38-4.98-13.98c1-3.37,0.58-6.32-1.05-9.28
			c-1.97-3.59-2.75-7.38-1.51-11.4c1.44-4.64,4.59-7.65,9.23-9.38c-0.73-1.49-1.54-2.98-2.2-4.54c-3.46-8.25-4.39-16.88-4.84-25.8
			c-0.43-8.42,2.33-15.44,6.34-22.32c0.83-1.43,2.26-2.49,3.36-3.78c0.34-0.4,0.65-0.93,0.72-1.43c1.37-9.97,6.89-17.51,14.67-23.23
			c10.58-7.78,22.83-10.83,35.87-10.94c1.22-0.01,2.47,0.02,3.64-0.24c0.92-0.21,1.71-0.97,2.62-1.27c2.96-0.96,4.01-4.27,6.73-5.42
			c1.69-0.72,3.51-1.25,5.32-1.59c3.03-0.56,6.08-1.05,9.15-1.25c0.99-0.07,2.04,0.84,3.5,1.49c3.43-1.57,7.71-1.69,11.22,0.61
			c3.42,2.24,6.91,4.8,9.02,8.6c0.35,0.62,0.65,1.36,1.19,1.77c2.37,1.84,2.93,4.28,2.72,7.1c-0.03,0.48,0.38,1.21,0.8,1.46
			c8.51,5.06,13.75,12.58,16.89,21.82c2.35,6.91,5.35,13.63,7.29,20.65c3.16,11.47,4.4,23.13,0.45,34.75
			c-0.66,1.95-2.38,3.72-2.48,5.63c-0.09,1.79,1.79,3.62,1.97,5.51c0.3,3.01,0.28,6.15-0.29,9.1c-0.68,3.52-0.88,6.83-0.1,10.4
			c0.77,3.53,1.06,7.28,0.83,10.88c-0.35,5.61-5.45,9.35-11.04,8.63C179.35,170.85,178.01,170.62,176.38,170.37z M174.67,82.08
			c1.61-1.12,3.27-2.34,5-3.46c2.82-1.84,3.5-4.48,3.19-7.66c-0.74-7.37-3.78-13.73-8.76-19.03c-4.79-5.1-10.3-9.18-17.77-9.5
			c-2.43-0.11-4.86-0.38-7.26-0.77c-4.01-0.65-8.15-1.01-11.96-2.3c-11.44-3.86-23-6.27-35.1-4.34c-2.88,0.46-5.65,1.57-8.52,2.18
			c-17.28,3.67-30.66,19.3-31.51,35.21c0.42,0.03,0.97,0.24,1.25,0.06c1.38-0.9,2.66-0.58,4.16-0.24c1.98,0.44,4.5,1.07,6.07,0.26
			c3.02-1.57,7.02-1.38,9.11-4.8c0.35-0.57,1.52-0.67,2.33-0.91c0.68-0.2,1.6-0.04,2.07-0.44c2.63-2.2,6-1.46,8.94-2.39
			c1.07-0.34,2.39-0.61,3.39-0.28c2.59,0.86,4.36-0.59,6.24-1.54c-0.81-1.68-1.57-3.25-2.22-4.62c0.79,0.58,1.65,1.2,2.5,1.84
			c1.92,1.44,3.73,1.07,4.82-1c1.66-3.15,3.94-5.67,7.34-7.41c-1.24,2.15-2.45,4-3.38,5.98c-0.32,0.68,0.06,1.69,0.11,2.54
			c0.68-0.25,1.44-0.39,2.03-0.78c1.99-1.31,4.19-1.39,7-1.57c-2.47,2.03-4.45,3.67-6.68,5.5c1.05,0.39,1.7,0.42,1.95,0.75
			c1.48,1.96,2.87,0.95,4.43,0.11c2.96-1.59,3.83-1.45,5.79,0.39c3.31-0.48,6.38-1.02,9.48-1.31c0.65-0.06,1.39,0.78,2.09,1.19
			c0.56,0.33,1.11,0.67,1.69,0.97c0.79,0.41,1.59,0.8,2.39,1.18c0.68,0.32,1.36,0.66,2.07,0.93c1.44,0.54,2.89,1.04,4.72,1.7
			c1.26-1.1,3.09-1.49,5.63,0.46c-3.04,0.6-5.55,1.1-8.19,1.62c-0.28-1.81-1.58-1.94-3.22-2.17c-2.07-0.28-4.06-1.23-6.07-1.93
			c-0.24-0.08-0.47-0.37-0.56-0.62c-0.6-1.62-1.69-1.11-2.82-0.73c-0.99,0.33-2.29,1.05-2.98,0.69c-1.31-0.68-2.12-0.11-3.19,0.26
			c-0.7,0.24-2.03,0.31-2.29-0.08c-1.6-2.39-3.31-1.35-4.97-0.32c-1.49,0.92-2.78,1.47-4.14-0.2c-0.3-0.36-1.01-0.48-1.54-0.55
			c-1.6-0.2-3.28-0.69-4.8-0.4c-2.22,0.43-4.32,0.72-6.46-0.19c-0.14-0.06-0.41,0.1-0.6,0.21c-2.11,1.22-4.27,2.03-6.71,0.95
			c-0.23-0.1-0.58-0.01-0.85,0.07c-3.44,1.02-7.23,0.63-10.42,2.66c-0.34,0.21-0.87,0.1-1.25,0.28c-1.24,0.58-2.48,1.17-3.66,1.87
			c-0.9,0.53-1.7,1.76-2.55,1.76c-2.46,0-4.54,0.45-6.03,2.57c-0.17,0.24-0.62,0.31-0.95,0.4c-2.7,0.75-5-0.5-7.44-1.4
			c-1.25,0.98-3.59,0.59-4,2.96c-0.36,2.04-0.91,4.04-1.33,6.07c-0.46,2.24-0.85,4.5-1.3,6.75c-0.23,1.16-0.74,2.3-0.76,3.46
			c-0.04,2.05,0.38,4.11,0.27,6.15c-0.2,3.64-0.68,7.26-0.98,10.9c-0.04,0.44,0.29,0.94,0.52,1.38c1.06,2.01,2.15,4.01,3.14,5.84
			c1.8-0.72,3.78-1.8,5.89-2.27c1.62-0.36,3.4,0.06,5.11,0.11c7.32,0.2,14.64,0.38,21.96,0.58c0.81,0.02,1.63,0.15,2.74,0.25
			c-0.34-0.49-0.43-0.68-0.57-0.8c-7.04-5.54-14.92-7.94-23.8-5.97c-3.2,0.71-6.28,1.96-9.43,2.87c-0.49,0.14-1.12-0.2-1.68-0.32
			c0.31-0.46,0.52-1.12,0.95-1.35c1.38-0.74,2.79-1.69,4.29-1.9c6.44-0.94,12.9-1.93,19.38-2.29c2.37-0.13,5.36,0.78,7.13,2.3
			c3.77,3.25,7.19,7,9.55,11.54c0.27,0.53,1.17,1.02,1.79,1.04c5.03,0.13,10.06,0.18,15.09,0.15c0.64,0,1.49-0.46,1.87-0.98
			c0.98-1.32,1.73-2.8,2.62-4.19c4.09-6.41,9.87-9.8,17.54-10.28c4.84-0.3,9.48,0.57,14,1.83c3.32,0.93,6.37,2.81,9.55,4.27
			c-0.12,0.32-0.25,0.64-0.37,0.96c-1.46-0.39-2.94-0.73-4.39-1.18c-1.42-0.45-2.77-1.22-4.22-1.5c-6.93-1.36-13.86-1-20.73,0.43
			c-4.02,0.84-6.07,4.15-8.76,7.19c2.47-0.28,4.53-0.76,6.56-0.71c9.05,0.2,18.1,0.51,27.14,0.87c1.7,0.07,3.4,0.51,5.09,0.82
			c1.85,0.34,2.99,1.39,3,3.35c0.04,4.74,0.29,9.49-0.04,14.2c-0.2,2.91-0.52,6.31-3.99,7.53c-2.59,0.92-5.32,1.67-8.04,1.97
			c-2.76,0.3-5.6,0.04-8.39-0.14c-6.73-0.41-13.46-0.97-20.19-1.36c-3.04-0.18-6.26,0.4-8.29-2.96c0.02,1.26,0.15,2.25,0.36,3.22
			c0.62,2.94-0.02,5.49-2.52,7.27c-1.68,1.19-4.16,1.74-5.14,3.29c-0.98,1.55-0.53,4-0.7,6.05c-0.01,0.12,0.09,0.25-0.01-0.02
			c3.08,0.76,6,1.2,8.71,2.21c5.5,2.06,10.22,5.26,13.03,10.66c0.47,0.89,0.58,1.96,0.86,2.95c-0.2,0.05-0.4,0.11-0.6,0.16
			c-1.02-1.45-1.98-2.95-3.09-4.32c-1.09-1.35-2.35-2.56-3.57-3.87c0.26,2.79,0.67,5.25,0.68,7.7c0.02,4.66-3.13,7.81-7.74,8.08
			c-0.71,0.04-1.47,0.1-2.09,0.39c-4.05,1.92-8.21,2.22-12.6,1.36c-5.38-1.05-9.32-3.64-10.87-9.11c-0.5-1.76-0.78-3.58-1.23-5.73
			c-0.81,1.09-1.46,1.91-2.04,2.78c-0.75,1.13-1.5,1.43-2.71-0.23c5.49-5.7,9.51-13.39,19.41-12.31c0-2.83,0-5.29,0-7.77
			c-8.03-1.51-9.51-4.34-7.65-14.69c-12.65,3.2-25.37,0.84-38.2,0.73c0.02-0.17-0.04,0.11-0.03,0.38
			c0.13,8.91,0.27,17.82,0.39,26.73c0.13,8.72,1.85,16.91,7.21,24.12c4.96,6.67,9.96,13.2,17.73,16.86c1.49,0.7,3.15,1.08,4.55,1.91
			c7.53,4.48,15.85,5.96,24.38,6.07c4.54,0.06,9.11-0.89,13.64-1.6c9.93-1.56,19.16-4.8,27.11-11.27
			c6.87-5.59,12.59-12.05,15.55-20.49c2.15-6.14,1.57-12.55,1.25-18.95c-0.46-9.24-0.69-18.52-0.48-27.77
			c0.1-4.38,1.3-8.76,2.27-13.08c0.44-1.97,0.75-3.7-0.36-5.53c-0.41-0.69-0.64-1.73-0.45-2.48c0.53-2.09,1.3-4.11,2.03-6.15
			c0.48-1.35,0.73-2.54-0.54-3.69c-0.41-0.37-0.47-1.31-0.42-1.98c0.15-2.02,0.44-4.03,0.64-6.05c0.03-0.25-0.06-0.69-0.22-0.76
			c-1.83-0.79-1.16-2.14-0.64-3.48c-3.58-1.49-0.71-2.94,0.05-4.5c-2-0.61-2.26-1.83-1.21-3.43c-3.08-0.78-6.97-5.69-6.29-8
			c-1.86-0.22-3-1-1.94-3.07c-4.71-0.5-4.77-0.54-4.67-3.47c-0.89,0.18-1.81,0.52-2.7,0.46c-0.24-0.02-0.39-1.27-0.59-2
			c5.3-0.64,5.3-0.64,6.28,2.85c1.82,0.27,3.64,0.54,5.66,0.83c-0.56,1.11-0.84,1.66-1.05,2.07
			C170.81,77.07,172.6,79.39,174.67,82.08z M146.32,142.74c4.19-0.31,8.47-0.94,12.73-0.85c4.17,0.09,5.04-2.12,5.29-5.53
			c0.29-3.99,0.84-7.96,1.28-11.93c0.13-1.21-0.25-2.09-1.53-2.46c-1.22-0.35-2.4-1.07-3.62-1.12c-9.4-0.42-18.8-0.73-28.2-1.03
			c-3.49-0.11-4.24,0.47-5.73,3.76c-0.18,0.41-0.69,0.68-1.07,1c-0.46,0.39-1.1,0.68-1.37,1.17c-1.98,3.57-3.01,7.43-3.1,11.51
			c-0.07,2.79,1.16,4.16,3.93,4.33C132.02,142.01,139.11,142.35,146.32,142.74z M79.57,138.11c0,0.12,0.01,0.25,0.01,0.37
			c5.58-0.25,11.17-0.42,16.75-0.77c3.41-0.21,4.75-1.74,5.28-5.11c0.72-4.59-0.73-8.82-2.17-13.02c-0.25-0.72-1.41-1.45-2.25-1.59
			c-2.18-0.36-4.42-0.55-6.63-0.53c-6.96,0.04-13.92,0.22-20.88,0.32c-0.56,0.01-1.16-0.01-1.68-0.2c-2.89-1.08-7.53,1.84-7.4,4.92
			c0.15,3.35,0.68,6.69,1.08,10.03c0.51,4.21,2.01,5.55,6.25,5.58C71.82,138.13,75.69,138.11,79.57,138.11z M119.47,124.68
			c-4.31,0-8.24,0.01-12.16,0c-2.89-0.01-2.8,0.1-3.13,2.98c-0.48,4.18-1.26,8.33-1.93,12.49c-0.27,1.69-0.67,3.37-0.86,5.07
			c-0.32,2.79,0.99,4.68,3.51,5.77c0.91,0.39,1.89,0.63,2.84,0.97c5.73,2.01,10.83-2.43,10.22-8.45c-0.43-4.22-0.1-8.53,0.12-12.78
			C118.16,128.97,118.85,127.25,119.47,124.68z M176.13,163.74c-0.33,3.44-0.33,3.42,2.64,3.9c0.48,0.08,0.93,0.33,1.39,0.52
			c2.7,1.12,5.68,0.42,7.58-1.81c3.39-3.96,3.11-8.83,1.88-13.11c-1.38-4.81-1.43-9.2-0.02-13.86c1.91-6.33-1.91-13.61-8.16-15.87
			c-1.74-0.63-3.27-0.26-3.93,1.51c-0.75,2.02-1.14,4.17-1.69,6.29c7.61,1.19,9.57,4.78,6.48,11.34c-1.1,2.33-1.39,4.63-0.41,7.06
			c0.57,1.39,0.96,2.86,1.6,4.22C186.37,159.99,181.09,164.65,176.13,163.74z M121.02,32.94c3.37-0.15,7.02,3.08,10.94,0.2
			c0.42-0.31,1.11-0.4,1.66-0.37c4,0.15,8.06-0.02,11.97,0.66c4.22,0.73,8.38,2.14,10.72,6.35c0.18,0.32,0.65,0.59,1.03,0.67
			c1.93,0.4,3.87,0.74,6.47,1.22c-0.86-2.03-1.63-3.64-2.23-5.31c-1.04-2.93-2.52-5.43-5.6-6.63c-0.23-0.09-0.45-0.39-0.55-0.64
			c-0.83-2.03-2.62-2.41-4.5-2.77c-3.28-0.62-6.5-0.99-9.69,0.52c-1.14,0.54-2.35,0.53-3.07-1c-0.19-0.4-1.15-0.74-1.67-0.64
			c-3.57,0.72-7.12,1.55-10.67,2.41c-0.58,0.14-1.26,0.44-1.62,0.89C123.08,29.91,122.07,31.45,121.02,32.94z M59.76,167.75
			c-0.66-1.97-0.84-3.78-1.77-5.05c-2.06-2.8-3.09-5.97-2.2-9.1c0.97-3.43,0.19-6.29-0.92-9.35c-1.21-3.34-0.21-6.61,2.43-8.9
			c0.46-0.4,1.13-0.97,1.12-1.46c-0.03-2.46-0.25-4.92-0.42-7.71c-0.98,0.4-1.59,0.57-2.12,0.88c-5.84,3.5-7.94,10.29-4.84,16.4
			c1.96,3.86,2.78,7.6,1.71,11.98C51.37,161.17,54.23,165.38,59.76,167.75z M175.35,134.05c-0.19,1.1-0.55,2.15-0.53,3.2
			c0.07,3.56,0.27,7.12,0.42,10.68c0.17,4.35,0.33,8.7,0.51,13.3c1.3-0.24,2.2-0.4,3.1-0.58c2.92-0.59,3.9-2.04,3.19-4.93
			c-0.24-0.96-0.77-1.84-1.15-2.77c-1.53-3.73-2.62-7.35-0.28-11.3C182.64,138.22,181.6,133.45,175.35,134.05z M96.36,176.04
			c0.92,3.06,2.52,5.54,5.66,6.75c6.37,2.45,12.69,1.83,18.84-0.65c2.98-1.2,4.39-4.55,3.75-7.43
			C115.53,180.79,106.18,180.86,96.36,176.04z M121.47,165.88c-3.59-1.02-7.05-1.67-10.52-0.15c-1.98,0.87-3.72,0.27-5.61-0.23
			c-1.18-0.31-2.58-0.26-3.78,0.05c-1.11,0.28-2.08,1.1-3.13,1.7C101.66,170.69,118.11,169.79,121.47,165.88z M58.47,137.9
			c-2.4,2.17-2.39,6.04,0,8.26C58.47,143.39,58.47,140.76,58.47,137.9z"/>
		<path class="st2" d="M106.21,193.02c2.51,0.11,4.71,0.21,7.26,0.32c-1.36,2.03-2.6,3.89-4.03,6.04
			C108.31,197.15,107.3,195.16,106.21,193.02z"/>
		<path class="st2" d="M163.58,132.42c-12.49-0.58-25.06,0.49-37.52-1.84c3.7-3.53,7.66-6,12.72-6.71
			c7.27-1.01,13.18,2.48,19.34,5.24c1.91,0.86,3.75,1.85,5.62,2.79C163.69,132.08,163.64,132.25,163.58,132.42z M138.53,125.84
			c-3.67-0.08-6.21,1.97-8.99,3.46c0.03,0.19,0.06,0.39,0.09,0.58c2.79,0.19,5.58,0.38,8.47,0.57
			C138.27,128.74,138.39,127.35,138.53,125.84z M155.6,130.49c0.03-0.11,0.07-0.22,0.1-0.33c-1.89-0.73-3.77-1.47-5.86-2.28
			c-0.05,0.94-0.09,1.67-0.14,2.61C151.8,130.49,153.7,130.49,155.6,130.49z"/>
		<path class="st2" d="M96.19,129.11c-7.23,0.4-14.24,0.78-21.25,1.19c-2.36,0.14-4.71,0.41-7.07,0.48c-0.6,0.02-1.21-0.5-1.81-0.78
			c0.33-0.49,0.59-1.07,1.01-1.47c5.1-4.79,11.26-5.82,17.83-4.57c2.54,0.48,4.94,1.78,7.35,2.85
			C93.58,127.41,94.8,128.29,96.19,129.11z M69.58,128.95c3.09-0.09,6.92,1.8,8.3-3.04C74.32,124.77,71.98,126.95,69.58,128.95z
			 M88.43,128.68c0.15-0.34,0.29-0.68,0.44-1.02c-1.04-0.45-2.09-0.89-3.13-1.34c-0.14,0.34-0.29,0.67-0.43,1.01
			C86.35,127.78,87.39,128.23,88.43,128.68z"/>
	</g>
</g>
</svg>
