<?xml version="1.0" encoding="utf-8"?>
<!-- Generator: Adobe Illustrator 23.0.3, SVG Export Plug-In . SVG Version: 6.00 Build 0)  -->
<svg version="1.1" id="圖層_1" xmlns="http://www.w3.org/2000/svg" xmlns:xlink="http://www.w3.org/1999/xlink" x="0px" y="0px"
	 viewBox="0 0 241.77 241.77" style="enable-background:new 0 0 241.77 241.77;" xml:space="preserve">
<style type="text/css">
	.st0{fill:#FFE2B2;}
	.st1{fill:none;stroke:#562B10;stroke-width:3;stroke-miterlimit:10;}
	.st2{fill:#562B10;}
	.st3{opacity:0.7;fill:#41220E;}
	.st4{fill:none;stroke:#562B10;stroke-width:11;stroke-linecap:round;stroke-linejoin:round;stroke-miterlimit:10;}
</style>
<g>
	<circle class="st1" cx="120.89" cy="120.89" r="119.39"/>
	<g>
		<path class="st2" d="M195.76,115.79c-1.78-0.93-3.57-1.86-5.5-2.87c-0.05,0.39-0.09,0.89-0.18,1.38
			c-0.51,2.54-0.92,5.11-1.61,7.61c-0.21,0.78-1.14,1.85-1.79,1.88c-0.69,0.04-1.46-0.97-2.15-1.57c-0.24-0.21-0.36-0.54-0.53-0.81
			c-2.48,4.16-4.92,8.25-7.28,12.21c1.63,1.24,3.75,2.52,5.46,4.22c3.85,3.84,5.85,9.56,2.36,15.49c-2.56,4.35-3.5,9.23-5.04,13.94
			c-1.95,5.97-5.39,11.25-11.93,12.97c-2.42,0.64-5.26-0.32-7.91-0.48c-0.6-0.04-1.4,0.03-1.79,0.4c-2.91,2.74-5.76,5.55-8.59,8.37
			c-3.95,3.95-7.93,7.87-11.77,11.92c-2.55,2.69-5.27,4.96-8.87,6.21c-2.25,0.78-4.26,2.26-6.46,3.22
			c-8.18,3.58-16.7,4.96-25.62,4.07c-6.84-0.68-11.82-3.83-15.15-9.97c-5.62-10.36-11.86-20.4-17.2-30.9
			c-3.82-7.53-6.8-15.51-9.73-23.45c-1.12-3.03-1.06-6.5-1.47-9.78c-1.06-8.62-1.91-17.27-3.21-25.85c-0.4-2.64-1.98-5.1-3.04-7.64
			c-1.55-3.68-2.32-7.51-2.13-11.5c0.37-7.58,0.3-15.22,1.3-22.72c0.56-4.17,2.85-8.13,4.45-12.15c2.05-5.19,5.25-9.66,8.67-14.03
			c3.94-5.04,9.16-8.27,14.77-10.97c6.44-3.09,13.21-5.43,20.34-6.06c8.61-0.76,17.22-0.28,25.63,2.1c0.36,0.1,0.87,0.17,1.13,0
			c4.16-2.73,8.95-3.03,13.66-3.36c8.63-0.6,16.92,1.27,24.9,4.37c19.98,7.75,31.37,22.91,36.46,43.2c0.93,3.7,1.23,7.66,1.22,11.49
			c-0.03,9.5-0.42,19-0.66,28.5C196.25,115.42,196.01,115.6,195.76,115.79z M77.44,76.01c-5.14,7.69-8.93,15.67-7.55,25.54
			c-4.45,0.52-8.59,1.05-12.74,1.43c-0.48,0.04-1.49-0.78-1.48-1.19c0.05-3.03,0.22-6.06,0.52-9.07c0.2-1.99,0.68-3.95,1.03-5.93
			c-0.23-0.08-0.47-0.15-0.7-0.23c-0.88,1.74-1.84,3.44-2.62,5.22c-1.51,3.41-3.01,6.87-2.64,10.73c0.23,2.39,0.78,4.75,1.05,7.14
			c0.77,6.77,1.5,13.55,2.18,20.33c0.57,5.76,0.44,11.67,1.7,17.27c2.47,10.96,7.4,21.03,12.89,30.79
			c4.59,8.18,9.49,16.19,14.06,24.38c3.06,5.49,7.4,8.53,13.76,9.23c9.57,1.05,18.32-1.36,26.81-5.36c2.18-1.03,4.65-1.82,6.34-3.4
			c6.28-5.91,12.64-11.8,18.31-18.27c5.91-6.75,11.97-13.65,12.92-23.28c0.18-1.77,0.79-3.49,1.05-5.26
			c1.02-6.97,3.75-13.58,3.68-20.82c-0.07-7.54-0.44-14.91-4.05-21.73c-0.32-0.61-0.93-1.37-1.51-1.49
			c-3.7-0.74-7.41-1.49-11.15-1.88c-2.38-0.25-4.82,0.14-7.24,0.18c-8.43,0.13-16.79,0.16-24.49,4.71
			c-2.05,1.21-3.33,2.45-4.09,4.41c-3.48,8.93-4.36,18.16-3.2,27.66c0.61,4.92,1.01,9.87,1.46,14.82c0.2,2.19-0.87,3.55-2.99,4.05
			c-2.27,0.54-4.54,1.04-7.11,1.63c0.24,2.17,0.49,4.37,0.76,6.75c3.46-0.49,6.21,0.88,8.95,2.42c1.62,0.91,3.35,1.64,5.08,2.32
			c3.75,1.47,7.17,0.81,10.23-1.8c0.31-0.27,0.7-0.44,1.06-0.66c-1.28,2.22-2.99,3.99-4.44,5.95c-7.17,9.69-16.59,13.96-28.62,12.08
			c-3.92-0.61-7.05-3.05-7.55-5.82c-0.26-1.42-0.41-2.87-0.75-4.28c-1.38-5.6,3.43-11.7,9.09-10.99c1.2,0.15,2.41,0.18,3.64,0.27
			c0.06-0.19,0.18-0.39,0.16-0.57c-0.19-1.91-0.41-3.82-0.59-5.52c-1.75-0.59-3.41-1.01-4.95-1.71c-4.01-1.83-5.06-5.3-3.28-9.24
			c1.55-3.44,3.17-6.96,3.97-10.62c1.67-7.61,0.84-15.19-1.49-22.63c-0.74-2.38-1.6-4.32-4.06-5.55c-3.32-1.65-6.6-3.2-10.4-2.93
			c-7.08,0.5-14.16,1.1-21.24,1.57c-0.62,0.04-1.73-0.43-1.85-0.87c-0.27-0.98-0.43-2.23,1.06-2.71c3.47-1.13,6.89-2.47,10.41-3.41
			c7.15-1.9,14.27-0.32,21.37,0.56c0.61,0.08,1.21,0.63,1.71,1.08c3.92,3.55,6.34,7.79,6.69,13.25c0.46,7.38,2.3,14.74-0.84,22.03
			c-1.38,3.19-2.09,6.66-3.31,9.93c-1.85,4.98,0.23,8.15,5.18,7.94c2.96-0.12,5.92-0.36,8.88-0.49c3.08-0.14,3.6-0.44,3.34-3.49
			c-0.49-5.55-1.18-11.09-1.96-16.61c-0.96-6.79-0.45-13.47,1.09-20.11c1.31-5.63,4.97-9.76,8.78-13.79
			c3.82-4.05,8.26-6.6,14.08-6.01c1.43,0.14,2.9,0.04,4.35-0.07c6.61-0.53,12.87,0.96,18.95,3.33c1.12,0.44,2.08,1.3,2.96,1.86
			c0.26-11.34-0.96-22.4-4.03-33.23c-0.53,2.18-0.59,4.46-1.33,6.48c-2.26,6.2-2.86,12.6-2.85,19.11c0,0.4-0.02,0.93-0.26,1.18
			c-0.35,0.38-0.93,0.81-1.38,0.79c-1.91-0.11-3.82-0.29-5.7-0.62c-0.79-0.14-1.89-0.56-2.19-1.17c-1.12-2.36-2.44-4.77-2.82-7.3
			c-0.84-5.58-1.16-11.23-1.71-16.86c-0.03-0.32-0.23-0.63-0.34-0.95c-0.26-0.02-0.52-0.03-0.78-0.05
			c-0.69,3.82-1.66,7.62-1.99,11.47c-0.3,3.56,0.1,7.17,0.17,10.76c0.02,1.27-0.2,2.34-1.89,2.33c-4.75-0.04-9.51-0.06-14.26,0.02
			c-1.73,0.03-2.97-0.62-3.73-2.08c-0.78-1.52-1.87-3.09-2.01-4.71c-0.41-4.85-0.41-9.74-0.57-14.62c-0.02-0.74,0-1.49,0-2.23
			c-0.29-0.02-0.58-0.04-0.86-0.05c-0.51,3.59-1.19,7.16-1.49,10.76c-0.27,3.3-0.06,6.63-0.22,9.94c-0.04,0.72-0.77,2.02-1.14,2.01
			c-1.8-0.07-3.96,0.09-4.84-1.99c-1.23-2.9-2.6-5.84-3.17-8.89c-0.54-2.91-0.12-6-0.12-9.01c-0.19-0.02-0.39-0.03-0.58-0.05
			c-2.11,6.46-3.31,13.08-3.61,19.75c-4.5-0.3-9.5-0.57-14.49-1.01c-0.64-0.06-1.56-0.85-1.75-1.48c-0.7-2.36-1.59-4.79-1.58-7.19
			C76.52,85.51,77.09,80.85,77.44,76.01z M159.78,177.14c2.59,0.13,4.9,0.26,7.22,0.34c0.77,0.02,1.71,0.14,2.29-0.23
			c4.2-2.71,7.32-6.43,8.47-11.29c1.15-4.87,2.58-9.58,5-13.95c2.22-4.02,1.49-7.71-0.96-11.23c-2.41-3.48-5.58-5.4-10.03-4.81
			c-3.2,0.42-3.28,0.38-3.52,3.81c0.81,0,1.63-0.02,2.44,0c3.94,0.13,7.44,2.82,7.3,5.91c-0.18,3.79-1.2,7.41-4.1,10.09
			c-1.71,1.58-2.55,3.28-2.46,5.62c0.13,3.37-1.52,5.8-4.49,7.31c-1.16,0.59-2.45,0.93-3.63,1.49c-0.56,0.27-1.22,0.7-1.44,1.22
			C161.13,173.11,160.58,174.89,159.78,177.14z M167.47,141.97c-1.58,8.85-3.08,17.24-4.62,25.86c4.9-1.2,6.67-3.18,6.6-7.42
			c-0.04-2.39,0.95-4.16,2.59-5.6c2.44-2.16,3.16-5.07,3.9-8.02c0.46-1.82-0.32-3.04-2-3.5
			C171.9,142.74,169.79,142.43,167.47,141.97z M117.78,186.15c-10.01,1.81-19.48,4.58-28.96-0.09c-0.17,2.94,1.66,4.23,3.81,5.07
			c1.58,0.62,3.29,0.99,4.98,1.23C105.11,193.43,111.44,190.65,117.78,186.15z M90.92,178.6c4.23,0.42,8.43,0.78,12.62,1.28
			c2.71,0.33,5.39,0.93,8.11,1.29c0.62,0.08,1.31-0.36,1.97-0.56c0.03-0.24,0.07-0.49,0.1-0.73c-2.96-1.12-5.92-2.25-8.88-3.37
			c-0.12-0.04-0.28-0.01-0.41,0.02c-2.83,0.7-5.55,0.25-8.31-0.57C93.64,175.22,91.69,176.47,90.92,178.6z M92.78,184.68
			c1.12,0.23,2.09,0.43,3.1,0.63c0-1.47,0-2.69,0-4.19c-1.16,0.06-2.19,0.12-3.28,0.18C92.66,182.54,92.71,183.49,92.78,184.68z
			 M102.81,182c0,1.19,0,2.38,0,3.7c1.18-0.11,2.17-0.2,3.14-0.28C105.77,181.75,105.73,181.7,102.81,182z M108.96,184.8
			c1.78-0.34,3.39-0.59,4.97-0.98c0.3-0.07,0.58-0.67,0.64-1.06c0.02-0.17-0.55-0.61-0.85-0.61c-1.61,0.01-3.23,0.11-4.93,0.19
			C108.85,183.28,108.9,183.88,108.96,184.8z M99.91,181.22c-2.21,1.06-1.06,2.94-1.69,4.41c0.9,0.06,1.52,0.1,2.25,0.15
			c-0.13-1.33-0.23-2.4-0.34-3.47C100.11,182.12,100.06,181.92,99.91,181.22z"/>
		<path class="st2" d="M145.53,135.27c-3.84,0.33-7.68,0.84-11.53,0.94c-5.23,0.14-10.48-0.02-15.71-0.12
			c-0.53-0.01-1.05-0.46-1.57-0.7c0.26-0.5,0.39-1.2,0.8-1.48c6.16-4.29,12.69-7.5,20.5-6.93c3.06,0.23,6.12,0.59,8.55,2.62
			c1.33,1.11,2.36,2.64,3.33,4.1c0.66,0.98,0.26,1.71-1.05,1.7c-1.1-0.01-2.21,0-3.31,0C145.54,135.34,145.53,135.3,145.53,135.27z
			 M148.22,133.75c-1.21-2.89-3.96-4.61-7.07-4.58c0,1.46,0,2.93,0,4.58C143.42,133.75,145.72,133.75,148.22,133.75z M121.21,133.29
			c0.06,0.14,0.12,0.28,0.17,0.41c1.94-0.12,3.88-0.25,5.84-0.37c0-0.99,0-1.86,0-3.02C125.12,131.35,123.16,132.32,121.21,133.29z"
			/>
		<path class="st2" d="M90.8,134.86c-9.83,0.22-19.11,0.46-28.39,0.59c-1.05,0.01-2.1-0.58-3.15-0.89c0.68-0.81,1.25-1.74,2.05-2.41
			c8.07-6.81,19.96-6.09,28.02,0.94C89.77,133.48,90.1,134.01,90.8,134.86z M72.51,129.39c-3.58,0.04-6.56,1.59-9.68,4.05
			c3.91,0,7.35,0,10.52,0C73.07,132.09,72.82,130.89,72.51,129.39z"/>
		<path class="st2" d="M77.12,147.74c-1.91-0.52-3.88-0.87-5.69-1.61c-1.01-0.41-1.8-1.43-2.57-2.28c-0.23-0.25-0.18-0.94,0-1.31
			c0.11-0.24,0.73-0.4,1.06-0.33c4.74,0.99,9.4,0.11,14.08-0.46c0.6-0.07,1.24,0.2,1.86,0.31c-0.16,0.61-0.14,1.37-0.5,1.81
			C83.25,146.4,80.6,147.8,77.12,147.74z"/>
		<path class="st2" d="M143.46,142.05c-1.42,2.15-3.6,3.14-5.91,3.29c-2.43,0.16-4.95-0.13-7.34-0.64
			c-1.97-0.42-3.91-1.37-3.15-4.09C132.35,141.08,137.79,141.55,143.46,142.05z"/>
	</g>
</g>
</svg>
