<?xml version="1.0" encoding="utf-8"?>
<!-- Generator: Adobe Illustrator 23.0.3, SVG Export Plug-In . SVG Version: 6.00 Build 0)  -->
<svg version="1.1" id="圖層_1" xmlns="http://www.w3.org/2000/svg" xmlns:xlink="http://www.w3.org/1999/xlink" x="0px" y="0px"
	 viewBox="0 0 241.77 241.77" style="enable-background:new 0 0 241.77 241.77;" xml:space="preserve">
<style type="text/css">
	.st0{fill:#FFE2B2;}
	.st1{fill:none;stroke:#562B10;stroke-width:3;stroke-miterlimit:10;}
	.st2{fill:#562B10;}
	.st3{opacity:0.7;fill:#41220E;}
	.st4{fill:none;stroke:#562B10;stroke-width:11;stroke-linecap:round;stroke-linejoin:round;stroke-miterlimit:10;}
</style>
<g>
	<circle class="st1" cx="120.89" cy="120.89" r="119.39"/>
	<g>
		<path class="st2" d="M172.42,193.01c-0.83-0.75-1.22-1.1-1.43-1.28c-2.92,4.03-5.82,8.03-8.74,12.01
			c-0.36,0.49-0.77,0.96-1.24,1.35c-1.64,1.4-2.74,0.99-3.16-1.11c-0.39-1.94-0.81-3.88-1.27-6.1c-2.44,1.99-4.74,3.84-7.01,5.73
			c-7.69,6.4-16.57,10.4-26.15,12.96c-1.18,0.32-2.4,0.66-3.61,0.67c-9.05,0.06-18.21,0.36-26.77-3.09
			c-3.05-1.23-5.81-3.7-8.12-6.15c-11.26-12-21.33-24.93-28.95-39.57c-3.44-6.62-5.8-13.6-5.21-21.37c0.33-4.41-0.04-8.9-0.48-13.32
			c-0.22-2.14-1.39-4.17-2.03-6.29c-0.84-2.77-1.77-5.54-2.32-8.37c-2.19-11.12-1.68-22.19,0.55-33.27
			c1.6-7.93,3.7-15.73,7.91-22.64c3.05-5,6.68-9.72,10.53-14.14c11.56-13.3,26.59-20.12,43.8-22.35c8.04-1.04,16.15-1.95,24.24-2.16
			c6.17-0.16,12.52,0.82,17.74,4.45c3.32,2.3,5.91,5.65,8.83,8.52c0.36,0.36,0.74,0.81,1.19,0.95c11.76,3.69,20.26,10.92,25.19,22.4
			c3.72,8.66,7.72,17.24,9.43,26.55c2.24,12.15,3.43,24.34-2.26,36.04c-0.43,0.89-1.14,1.71-1.35,2.64c-0.4,1.79-0.9,3.68-0.71,5.46
			c0.35,3.31,0.78,6.51-0.78,9.67c-1.27,2.57-1.34,5.17-0.49,8.01c1.83,6.07,0.48,11.88-3.31,16.71c-1.69,2.16-4.91,3.1-7.38,4.68
			c-0.71,0.46-1.45,1.12-1.79,1.86c-0.85,1.87-1.32,3.92-2.23,5.76C172.85,182.73,172.15,187.51,172.42,193.01z M128.1,173.07
			c-1.29,9.25-4.59,17.05-14.22,20.89c-5.78,2.3-11.42,3.01-17.16,0.49c-3.58-1.57-6.39-4.21-6.89-8.24
			c-0.46-3.76-0.23-7.61-0.36-11.42c-0.12-3.55,1.04-4.89,4.6-5.53c3.55-0.64,6.82-0.32,9.62,2.48c0-4.51,0-8.64,0-12.87
			c-0.75,0.06-1.41,0.15-2.08,0.16c-4.66,0.05-7.29-2.38-7.04-6.93c0.13-2.3,0.91-4.56,1.42-6.98c-0.69,0.15-1.43,0.24-2.13,0.47
			c-4.21,1.37-8.48,1.88-12.91,1.31c-2.5-0.32-5.05-0.27-7.57-0.4c-4.52-0.22-9.04-0.38-13.55-0.67c-4.16-0.27-5.02-1.26-5.04-5.43
			c-0.01-2.1,0-4.2,0-6.3c-0.34-0.07-0.68-0.15-1.02-0.22c-0.27,0.67-0.79,1.35-0.77,2.01c0.09,3.06,0.63,6.13,0.47,9.17
			c-0.56,10.59,3.09,19.79,8.68,28.5c7.5,11.7,16,22.62,24.92,33.26c3.83,4.57,8.42,6.75,13.92,7.48c5,0.67,10.06,1.15,15.09,1.18
			c3.22,0.02,6.6-0.49,9.65-1.54c14.31-4.9,25.4-14.58,35.66-25.2c9.14-9.46,12.73-21.31,12.74-34.24c0-6-0.59-12.01-0.97-18.01
			c-0.03-0.53-0.51-1.02-0.78-1.53c-0.63,1.14-0.64,2.14-0.87,3.08c-0.68,2.79-0.8,6.17-4.23,7.05c-3.83,0.97-7.8,1.95-11.71,1.92
			c-9.03-0.07-18.05-0.65-27.07-1.21c-3.08-0.19-6.13-0.92-9.19-1.4c-0.87-0.14-1.75-0.24-3.38-0.47c0.89,2.3,1.51,4.1,2.28,5.84
			c2.09,4.7,0.77,7.69-4.1,8.75c-2.13,0.47-4.34,0.6-6.7,0.91c0,3.88,0,7.91,0,12.39C114.59,166.02,121.34,168.92,128.1,173.07z
			 M153.27,67.39c-4.65,3.06-8.69,5.77-12.78,8.39c-1.34,0.85-2.78,1.59-4.26,2.17c-11.42,4.42-23.43,6.43-35.38,8.73
			c-11.88,2.28-23.51,5.25-32.86,13.69c-5.12,4.63-11.31,8.21-13.91,15.21c-1.53,4.1-1.7,8.24-1.5,12.56
			c1.92-0.3,2.5-1.17,2.56-2.86c0.17-4.56,0.25-4.69,4.88-4.82c4.89-0.14,9.8-0.12,14.68,0.08c4.02,0.17,8.03,0.71,12.05,1.08
			c2.23,0.2,4.46,0.38,6.68,0.56c0.12-0.19,0.25-0.37,0.37-0.56c-1.66-1.83-3.4-3.6-4.96-5.51c-2.76-3.38-6.22-4.9-10.61-5.01
			c-4.26-0.11-7.77,1.27-10.98,3.88c-0.51,0.42-1.44,0.32-2.17,0.47c0.15-0.75,0.06-1.67,0.47-2.22c4.36-5.86,14.33-8.39,20.82-4.87
			c6.49,3.52,9.92,9.57,11.63,16.56c0.4,1.65,0.89,2.14,2.52,1.98c3.65-0.38,7.33-0.54,10.98-0.95c0.56-0.06,1.29-0.85,1.51-1.46
			c0.53-1.49,0.34-3.45,1.26-4.52c2.42-2.84,4.98-5.74,8.01-7.84c8.97-6.21,18.9-6.88,29.21-4.07c3.72,1.02,7.07,2.66,8.7,6.47
			c0.35,0.82,0.26,1.83,0.45,3.35c-14.1-12.36-33.58-6.54-40.8,1.74c1.85-0.11,3.82-0.3,5.8-0.31c3.6-0.03,7.21,0,10.81,0.09
			c6.42,0.16,12.85,0.27,19.27,0.63c3.58,0.2,7.13,0.98,10.71,1.26c3.55,0.27,4.54,1.01,5.29,4.44c0.2,0.92,0.79,1.76,1.2,2.64
			c0.3-0.07,0.59-0.14,0.89-0.21c0.89-5.71,0.7-11.41-0.3-17.11c-1.6,0.42-3.04,0.8-4.48,1.18c-0.13-4.86,2.82-9.15,1.12-14.2
			c-3.45,3.79-7.6,5.24-12.31,5.23c-4.49,0-8.84-0.78-13.63-2.59c2.33-0.99,4.04-1.72,5.75-2.45c-12.44,0.38-18.01-0.48-21.29-3.63
			C140.89,89.41,148.47,80.09,153.27,67.39z M132.73,121.95c-0.01,0.07-0.01,0.14-0.02,0.21c-3.68,0-7.36,0.01-11.04,0
			c-1.76-0.01-2.66,0.68-2.59,2.61c0.18,5.2,0.27,10.4,0.31,15.61c0.01,1.39,0.53,1.76,1.88,1.89c6.71,0.62,13.41,1.35,20.11,2.08
			c8.05,0.88,16.07,0.46,24.03-0.88c0.75-0.13,1.76-1.15,1.92-1.91c0.68-3.28,1.4-6.61,1.54-9.94c0.25-6.19-1.74-7.32-7.47-7.87
			C151.88,122.82,142.29,122.51,132.73,121.95z M96.43,136.26c-0.62-3.02-1.19-6.06-1.87-9.07c-0.44-1.96-1.66-2.84-3.78-2.93
			c-4.27-0.17-8.54-0.84-12.81-0.89c-5.43-0.07-10.87,0.11-16.29,0.47c-2.77,0.18-3.58,1.43-3.6,4.25c-0.02,2.07,0,4.13-0.01,6.2
			c-0.02,2.13-0.05,4.25-0.09,6.37c-0.04,2.28,1.35,2.7,3.28,2.79c5.12,0.25,10.22,0.74,15.34,0.96c3.96,0.17,7.95,0.28,11.91,0.08
			C94.98,144.16,96.14,142.76,96.43,136.26z M98.95,131.07c-0.06,0.42-0.15,0.78-0.17,1.15c-0.17,3.75-0.19,7.5-0.53,11.23
			c-0.25,2.81-0.91,5.59-1.36,8.38c-0.38,2.37,0.76,3.31,3.07,3.32c3.8,0.02,7.6,0.52,11.4,0.57c1.5,0.02,3.63-0.17,4.35-1.12
			c0.68-0.89-0.05-2.92-0.31-4.42c-0.11-0.64-0.83-1.18-0.91-1.81c-0.38-3.03-0.61-6.08-0.94-9.12c-0.32-2.93-0.7-5.86-1.05-8.83
			C107.86,130.64,103.45,130.85,98.95,131.07z M175.31,168.14c0.99,0.09,2.07,0.48,2.97,0.22c1.51-0.44,2.96-1.2,4.31-2.02
			c0.95-0.57,1.9-1.34,2.51-2.25c3.05-4.61,4.38-9.56,2.56-15.04c-1-2.99-0.6-5.93,0.7-8.72c2.21-4.7,0.87-8.93-1.51-13.05
			c-0.58-1-1.46-1.48-2.44-0.53c-1.82,1.76-4.09,3.33-5.24,5.48c-1.71,3.2-2.95,6.75-3.73,10.3c-0.57,2.61-0.18,5.45-0.02,8.18
			c0.16,2.8,0.8,5.59,0.79,8.38C176.2,161.98,175.66,164.86,175.31,168.14z M92.17,184.75c-0.22,0.17-0.44,0.34-0.65,0.51
			c0.49,1.09,0.75,2.4,1.52,3.24c3.72,4.05,8.36,5.82,13.83,4.82c2.25-0.41,4.46-1.13,6.61-1.9c2.78-0.99,4.66-3.17,6.6-5.28
			c-1.12-0.25-2.19-0.53-3.03-0.21c-5.14,1.97-10.49,2.12-15.85,1.8c-2.06-0.12-4.09-0.92-6.09-1.55
			C94.09,185.85,93.15,185.23,92.17,184.75z M121.41,173.19c-4.47-2.86-8.47-1.7-12.35-0.22c-2.81,1.07-5.25,1.04-7.76-0.78
			c-2.29-1.66-4.9-1.6-8.01-0.74C102.6,176.24,111.73,175.06,121.41,173.19z M115.83,138.38c0-2.9,0-5.79,0-8.68
			C114.07,130.02,113.81,133.52,115.83,138.38z"/>
		<path class="st2" d="M101.04,206.44c1.5-1.6,6.36-2.6,8.05-1.61c0.51,0.3,0.93,1.01,1.07,1.6c0.08,0.37-0.34,1.02-0.72,1.29
			C108.18,208.61,102.25,207.73,101.04,206.44z"/>
		<path class="st2" d="M84.75,166.6c-1.66-1.82-1.18-3.67-0.27-5.34c0.51-0.93,1.6-1.55,2.43-2.31c0.11,0.15,0.22,0.31,0.33,0.46
			C86.45,161.72,85.65,164.01,84.75,166.6z"/>
		<path class="st2" d="M134.81,164.44c-1.73-1.2-3.64-2.53-6.04-4.19c0.95-0.2,1.72-0.6,2.4-0.48
			C132.94,160.1,134.54,162.42,134.81,164.44z"/>
		<path class="st2" d="M157.94,133.94c-0.95,0.52-1.63,1.22-2.33,1.23c-6.56,0.16-13.12,0.18-19.67,0.28
			c-2.59,0.04-5.18,0.2-7.78,0.24c-0.68,0.01-1.36-0.23-2.04-0.36c0.42-0.55,0.72-1.28,1.27-1.62c3.34-2.13,6.58-4.55,10.18-6.11
			c2.01-0.87,4.66-0.29,7.03-0.32c3.14-0.04,5.75,1.35,8.23,3.08C154.33,131.41,155.83,132.46,157.94,133.94z M129.7,133.09
			c0.09,0.2,0.18,0.41,0.27,0.61c2.22,0,4.43,0,6.61,0c0.19-1.48,0.36-2.85,0.63-4.98C134.44,130.34,132.07,131.72,129.7,133.09z
			 M153.37,133.86c0.05-0.28,0.11-0.56,0.16-0.84c-1.69-0.96-3.38-1.91-5.09-2.89c-0.58,1.39-1.09,2.62-1.79,4.31
			C149.14,134.23,151.25,134.04,153.37,133.86z"/>
		<path class="st2" d="M149.62,140.41c-3.74,2.54-16.35,1.78-20.25-1.41c0.21-0.12,0.39-0.28,0.6-0.34c0.29-0.08,0.6-0.15,0.9-0.12
			C137.12,139.16,143.37,139.79,149.62,140.41z"/>
		<path class="st2" d="M93.66,134.1c-2.63,0.3-5.03,0.39-7.36,0.86c-6.72,1.36-13.44,1.04-20.42,0.69
			c4.51-7.67,8.21-8.57,18.03-7.11C89.14,129.31,93.69,132.61,93.66,134.1z M75.56,129.72c-2.81,0.59-5.09,1.71-6.7,4.52
			c1.52,0,2.65,0,3.78,0c1.09,0,2.19,0,3.19,0C75.73,132.61,75.66,131.34,75.56,129.72z"/>
		<path class="st2" d="M91.75,138.78c-4.76,2.41-9.53,1.93-14.79,1C82.13,139.43,86.84,139.12,91.75,138.78z"/>
		<path class="st2" d="M176.49,161.55c0.84-0.54,1.19-0.81,1.57-1.01c3.41-1.72,4.17-3.6,2.64-7.04c-1.57-3.51-0.98-6.86,0.44-10.21
			c0.24-0.56,0.58-1.08,0.85-1.63c1.7-3.33,1.1-4.66-3.02-7.05c0.89-0.04,1.84-0.33,2.64-0.08c2.19,0.66,3.34,3.05,2.7,5.39
			c-0.24,0.88-0.64,1.72-1.07,2.53c-2.15,4.04-2.55,8.05-0.32,12.27c1.11,2.1,0.49,4.23-1.18,5.89
			C180.45,161.92,178.86,162.46,176.49,161.55z"/>
	</g>
</g>
</svg>
