<?xml version="1.0" encoding="utf-8"?>
<!-- Generator: Adobe Illustrator 23.0.3, SVG Export Plug-In . SVG Version: 6.00 Build 0)  -->
<svg version="1.1" id="圖層_1" xmlns="http://www.w3.org/2000/svg" xmlns:xlink="http://www.w3.org/1999/xlink" x="0px" y="0px"
	 viewBox="0 0 241.77 241.77" style="enable-background:new 0 0 241.77 241.77;" xml:space="preserve">
<style type="text/css">
	.st0{fill:#FFE2B2;}
	.st1{fill:none;stroke:#562B10;stroke-width:3;stroke-miterlimit:10;}
	.st2{fill:#562B10;}
	.st3{opacity:0.7;fill:#41220E;}
	.st4{fill:none;stroke:#562B10;stroke-width:11;stroke-linecap:round;stroke-linejoin:round;stroke-miterlimit:10;}
</style>
<g>
	<circle class="st1" cx="120.89" cy="120.89" r="119.39"/>
	<g>
		<path class="st2" d="M197.98,123.65c0.67,2.72,1.42,5.22,1.87,7.77c0.65,3.7-0.59,7.08-2.83,9.88c-2.45,3.06-3.24,6.42-3.32,10.18
			c-0.04,2.01-0.3,4.06-0.78,6.01c-1.45,5.89-7.67,9.57-13.63,8.3c-1.43-0.3-2.94-0.32-4.41-0.32c-0.38,0-0.84,0.52-1.12,0.91
			c-0.94,1.31-1.77,2.72-2.74,4.01c-3.33,4.42-6.91,8.66-9.99,13.25c-3.08,4.6-5.65,9.54-8.48,14.31
			c-3.7,6.22-7.95,11.97-14.32,15.75c-5.02,2.98-10.48,4.73-16.26,5.38c-3.49,0.4-7.02,0.42-10.53,0.71
			c-6.22,0.53-11.9-1.22-17.34-3.99c-5.18-2.64-8.09-7.27-10.49-12.26c-4.2-8.74-9.12-17.05-14.36-25.2
			c-2.04-3.17-3.54-6.69-5.18-10.1c-0.53-1.11-0.98-1.63-2.39-1.42c-3.42,0.52-7.37-2.73-8.62-6.67c-1.21-3.79-2.4-7.61-3.92-11.28
			c-1.08-2.6-2.62-5.03-4.1-7.44c-2.99-4.86-3.06-9.82-0.81-14.93c0.29-0.66,0.75-1.29,1.24-1.83c1.05-1.16,0.8-3.13-0.72-3.47
			c-4.5-1.02-5.94-4.16-5.75-8.22c0.33-6.89,0.72-13.78,1.45-20.63c1.28-12.03,4.82-23.44,10.22-34.26c0.75-1.49,1.82-2.83,2.8-4.2
			c3.82-5.33,7.57-10.7,11.5-15.94c4.62-6.16,10.97-9.8,18.34-11.57c6.11-1.47,12.25-2.88,18.46-3.81c4.85-0.73,9.82-1.24,14.71,0.2
			c0.81,0.24,1.74,0.12,2.61,0.1c7.64-0.18,15.28-0.67,22.9-0.47c5.99,0.15,11.75,2.06,17.1,4.72
			c12.24,6.09,22.59,14.43,29.33,26.57c2.12,3.82,3.58,8,5.31,12.04c3.61,8.44,5.6,17.36,7.25,26.32
			c0.98,5.36,1.19,10.88,1.56,16.33c0.26,3.84,0.21,7.69,0.27,11.54c0.04,3.14-0.28,3.46-3.39,3.64
			C198.88,123.61,198.34,123.64,197.98,123.65z M60.14,130.53c-1.91,1.78-3.69,3.24-2.58,6.63c2.15,6.6,4.02,13.33,5.43,20.12
			c1.66,8.04,5.39,15.13,9.16,22.22c1.74,3.27,4.15,6.17,5.97,9.4c2.69,4.77,4.98,9.77,7.72,14.51c1.61,2.78,3.34,5.79,5.79,7.74
			c5.32,4.24,11.48,6.69,18.5,6.89c6.51,0.19,12.6-1.51,18.71-3.31c6.89-2.03,12.73-5.66,16.86-11.67c1.87-2.72,3.51-5.6,5.36-8.34
			c5.73-8.46,11.81-16.69,17.16-25.38c3.83-6.22,7.08-12.86,9.93-19.6c3.2-7.55,3.61-15.56,1.66-23.67c-0.09,0-0.33-0.07-0.48,0.01
			c-2.79,1.64-5.58,3.28-8.32,4.99c-0.31,0.19-0.45,0.77-0.54,1.19c-0.36,1.78-0.59,3.6-1.01,5.36c-0.98,4.07-3.42,6.3-7.53,6.38
			c-11.31,0.23-22.63,0.33-33.94,0.38c-3.52,0.01-4.32-1.15-4.18-4.65c0.13-3.28,0.03-6.57,0.03-9.86c-0.55,0.78-0.8,1.65-1.01,2.53
			c-1.73,7.35-0.6,14.69,0.44,21.96c0.27,1.89,1.89,3.65,3.07,5.33c1.86,2.65,1.4,5.63-1.47,6.95c-3.94,1.82-7.99,3.39-12.04,5.1
			c0,1.66,0,3.31,0,4.98c4.46-0.96,5.53-0.69,9.22,2.26c2.27,1.81,5.32,1.49,7.23-0.83c0.65-0.79,1.13-1.71,1.68-2.57
			c0.17,0.06,0.33,0.12,0.5,0.18c-0.19,0.86-0.35,1.72-0.58,2.57c-0.25,0.9-0.67,1.77-0.84,2.68c-0.41,2.26-0.61,4.57-1.1,6.81
			c-1.22,5.54-3.86,9.83-9.75,11.59c-4.5,1.35-8.96,1.26-13.44,0.38c-1.04-0.2-2.21-1.16-2.77-2.09c-1.09-1.82-1.8-3.87-2.65-5.84
			c-0.96-2.21-1.76-4.51-2.89-6.63c-0.93-1.74-2.3-3.25-3.37-4.93c-0.25-0.39-0.1-1.03-0.15-1.83c2.78,2.07,4.85,1.78,7.07-0.42
			c0.74-0.73,1.88-1.33,2.9-1.46c1.9-0.23,3.84-0.07,6-0.07c-0.51-2.11-0.36-5.02-1.58-5.82c-2.61-1.71-5.05-4.21-8.52-4.34
			c-2.07-0.08-3.4-1.19-4.24-2.94c-0.87-1.81-0.32-3.46,0.92-4.87c0.84-0.96,1.85-1.77,2.75-2.69c0.58-0.59,1.22-1.19,1.61-1.9
			c1.96-3.59,1.16-7.51,1.22-11.31c0.03-1.91-0.28-3.82-0.44-5.73c-0.22-0.08-0.44-0.16-0.66-0.24c-0.67,1.01-1.5,1.95-1.99,3.04
			c-1.31,2.9-3.62,4.52-6.63,4.64c-7.29,0.29-14.6,0.45-21.89,0.35c-2.29-0.03-4.12-1.72-5.19-3.81
			C63.49,137.55,61.87,134.08,60.14,130.53z M167,106.52c0.01,0.33,0.01,0.65,0.02,0.98c-1.76,0.39-3.5,0.88-5.27,1.16
			c-5.07,0.8-10.25,1.13-15.2,2.36c-5.55,1.38-10.95,3.44-16.33,5.42c-2.64,0.97-2.66,3.79-3.48,6.08c1.12-2.06,2.64-3.56,4.99-3.76
			c3.17-0.28,6.35-0.65,9.52-0.57c7.04,0.18,14.08,0.54,21.11,0.98c1.63,0.1,3.27,0.73,4.83,1.31c2.98,1.12,5.97,1.21,8.89,0.83
			c-0.17-1.69-0.29-3.09-0.47-4.48c-0.7-5.41-1.44-10.82-2.13-16.24c-0.17-1.33-0.69-1.5-2.02-1.31c-3.73,0.54-7.5,0.85-11.26,1.13
			c-1.75,0.13-3.1-0.76-4.1-2.2c-0.9-1.29-1.84-2.55-2.76-3.82c-0.11,0.06-0.22,0.12-0.33,0.18c0.33,1.05,0.66,2.11,1.08,3.42
			c-5.94,1.55-11.65,3.39-17.79,3.19c-1.88-0.06-3.16-0.69-4.21-2.26c-2.91-4.37-5.09-9.07-6.76-14.04c-1.11-3.3-2.3-6.56-3.46-9.85
			c-0.2,0.02-0.4,0.04-0.6,0.06c-0.76,4.69-0.48,9.42-0.13,14.15c0.35,4.88,1.23,9.61,3.81,13.95c-0.5,0.23-0.79,0.49-1.09,0.49
			c-6.08,0.16-12.16,0.33-18.25,0.38c-0.51,0-1.27-0.63-1.49-1.14c-0.65-1.54-1.28-3.13-1.58-4.77c-0.74-4.08-1.3-8.19-1.93-12.29
			c-0.42,4.71-0.43,9.44-0.42,14.17c0,2.24-0.64,2.95-2.5,2.68c-2.55-0.37-5.08-0.77-7.63-1.14c-1.13-0.16-1.61-0.66-1.48-1.91
			c0.49-4.85,0.88-9.7,1.32-14.55c0.1-1.06,0.26-2.12,0.39-3.17c-0.42,0.19-0.57,0.41-0.68,0.65c-2.03,4.42-4.06,8.84-6.09,13.25
			c-0.59,1.28-1.44,2.17-3,1.79c-2.76-0.67-5.52-1.36-8.26-2.1c-1.51-0.41-1.8-1.16-1.06-2.71c0.98-2.03,1.54-4.25,2.37-6.66
			c-3.44,4.6-6.44,9.01-9.85,13.07c-3.45,4.11-6.72,8.53-11.76,10.82c1.38,5.79,2.71,11.4,4.05,17.01c3.02-1.1,4.68-3.61,6.23-6.12
			c1.11-1.79,2.49-2.43,4.53-2.34c5.95,0.25,11.9,0.42,17.85,0.53c4.44,0.08,8.88,0.02,13.32,0.02c0.13-0.16,0.26-0.33,0.39-0.49
			c-1.47-1.69-2.69-3.74-4.47-5c-6.21-4.37-13.03-7.13-20.82-6.84c-2.4,0.09-4.8,0.01-7.63,0.01c0.93-1.91,1.83-2.63,3.28-2.64
			c4.6-0.01,9.22-0.24,13.81,0.02c4.33,0.25,8.5,1.6,11.58,4.78c2.42,2.5,4.27,5.54,6.49,8.25c1.69,2.06,2.56,4.37,2.74,6.97
			c0.22,3.11,0.2,3.04,3.38,2.83c4.5-0.3,9.01-0.55,13.53-0.65c1.24-0.03,1.74-0.26,2.09-1.5c0.69-2.46,1.16-5.22,2.62-7.18
			c1.76-2.36,4.22-4.43,6.79-5.9c8.64-4.96,18.2-6.33,28-6.27C162.14,105.59,164.57,106.19,167,106.52z M104.13,129.69
			c0.19,2.92,0.28,5.49,0.54,8.03c0.68,6.66-0.6,12.93-3.64,18.86c-0.27,0.53-0.91,0.92-1.45,1.27c-1.17,0.75-2.51,3.83-2.12,5.22
			c0.5,1.81,2.09,1.41,3.37,1.52c2.14,0.19,3.95,0.68,5.41,2.58c2.21,2.87,6.94,3.14,9.91,1.05c1.13-0.8,2.48-1.69,3.79-1.78
			c4.31-0.3,4.87-3.8,3.1-6.92c-0.69-1.22-1.59-2.5-1.72-3.83c-0.58-5.77-1.07-11.55-1.26-17.34c-0.09-2.86,0.56-5.73,0.88-8.66
			C115.37,129.69,109.92,129.69,104.13,129.69z M80.32,142.94c0,0.05,0,0.1,0,0.16c2.71,0,5.41,0.03,8.12-0.01
			c5.26-0.06,9.09-2.38,10.21-6.91c0.83-3.36,0.87-6.93,1.13-10.42c0.06-0.82-0.41-1.69-0.7-2.51c-0.47-1.29-1.31-1.79-2.79-1.73
			c-4.32,0.18-8.65,0.1-12.97,0.23c-5.64,0.16-11.12-2.02-16.86-0.87c-2.19,0.44-3.04,0.53-2.9,2.88c0.24,4.16,0.44,8.39,1.36,12.43
			c0.92,4.04,3.41,7,8.52,6.78C75.72,142.86,78.02,142.94,80.32,142.94z M148.17,122.02c0,0.12,0,0.23,0,0.35
			c-4.87,0-9.75-0.12-14.61,0.04c-3.74,0.13-5.28,1.8-5.44,5.43c-0.14,3.24-0.16,6.49-0.28,9.74c-0.13,3.48,0.14,3.8,3.73,3.94
			c0.54,0.02,1.08,0,1.62-0.01c4.19-0.09,8.39-0.06,12.58-0.29c5.94-0.32,11.87-0.77,17.79-1.25c2.02-0.17,2.97-1.64,3.01-3.5
			c0.08-3.51,0.07-7.03-0.11-10.54c-0.13-2.51-1.92-3.92-4.49-3.91C157.38,122.03,152.77,122.02,148.17,122.02z M174.89,163.92
			c2.7,0,4.95,0.2,7.15-0.04c4.83-0.52,8.6-3.8,9.16-7.85c0.33-2.41,0.55-4.84,0.64-7.26c0.1-2.59,0.93-4.84,2.35-6.99
			c1.29-1.96,2.77-3.98,3.34-6.19c1.42-5.54-0.67-10.27-4.57-14.17c-2.59-2.59-5.15-2.78-8.28-0.89c-0.64,0.38-1.25,1.31-1.31,2.03
			c-0.12,1.44,0.16,2.92,0.27,4.35c5.62,0.54,8.6,6.27,5.58,10.93c-1.73,2.67-2.15,5.27-1.59,8.28c0.21,1.14,0.15,2.53-0.31,3.56
			c-1.69,3.76-4.3,6.67-8.4,8c-0.71,0.23-1.56,0.69-1.9,1.29C176.26,160.29,175.78,161.79,174.89,163.92z M47.03,126.05
			c-0.46,0.77-0.84,1.24-1.04,1.77c-1.62,4.21-1.56,8.26,0.82,12.26c1.86,3.13,3.69,6.31,5.13,9.64c1.39,3.21,2.27,6.64,3.39,9.96
			c1.08,3.2,4.18,5.33,7.45,5.07c-0.46-1.48-0.92-2.93-1.15-3.67c-1.77-0.89-3.4-1.2-4.1-2.17c-1.21-1.7-1.97-3.76-2.7-5.75
			c-0.9-2.46-1.13-5.25-2.42-7.45c-2.29-3.89-2.91-7.47-0.05-11.09c-0.99-1.43-1.96-2.73-2.82-4.1
			C48.69,129.17,47.97,127.74,47.03,126.05z M178.39,154.56c4.44-1.02,7.43-4.18,6.95-7.84c-0.52-3.96,0.24-7.47,1.97-10.92
			c0.32-0.65,0.5-1.41,0.56-2.14c0.13-1.79-0.69-3.17-2.23-4.01c-1.06-0.58-2.12-0.77-2.25,1c-0.11,1.54-0.32,3.08-0.37,4.62
			c-0.21,5.89-0.44,11.77-3.8,16.96C178.84,152.81,178.73,153.57,178.39,154.56z M103.04,194.21c-0.16,2.03,1,3.78,3,4.17
			c4.9,0.95,9.82,1.17,14.44-1.17c1.33-0.67,2.4-1.86,3.58-2.81c-0.11-0.28-0.23-0.56-0.34-0.84
			C116.89,194.7,110.05,195.96,103.04,194.21z M60.26,158.06c0.18-0.13,0.36-0.27,0.54-0.4c-0.4-7.01-3.74-13.27-5.31-19.98
			c-0.1-0.42-0.89-0.96-1.32-0.93c-0.38,0.03-0.95,0.75-1.01,1.22c-0.31,2.28-0.32,4.47,0.96,6.64c1.89,3.19,4.31,6.18,3.89,10.37
			C57.91,155.93,59.46,157.03,60.26,158.06z M100.88,181.58c7.33,1.29,14.65,2.35,22.01,0.57c-3.24-1.75-6.49-2.78-10.07-1.18
			c-0.67,0.3-1.84,0.14-2.48-0.27C106.95,178.45,103.93,179.97,100.88,181.58z M54.76,133.6c-0.58-2.46-0.95-4.99-1.8-7.35
			c-1.7-4.7-3.67-9.3-5.53-13.94c-0.17,0.07-0.35,0.14-0.52,0.21C46.23,118.89,49.35,127.75,54.76,133.6z"/>
		<path class="st2" d="M70.66,159.77c-0.11-0.15-0.16-0.2-0.18-0.26c-0.47-1.55,0.47-2.38,1.65-2.98c0.17-0.09,0.97,0.49,0.94,0.64
			C72.77,158.47,72.26,159.67,70.66,159.77z"/>
		<path class="st2" d="M81.26,149.17c0.28,0.59,0.81,1.2,0.77,1.76c-0.03,0.49-0.7,1.31-1.1,1.32c-0.48,0.01-1.25-0.61-1.38-1.09
			c-0.11-0.41,0.52-1.01,0.83-1.53C80.67,149.48,80.96,149.32,81.26,149.17z"/>
		<path class="st2" d="M146.77,161.68c-1.06-0.63-2.11-1.25-3.31-1.97c1.74-1.1,2.95-0.5,3.66,1.45
			C147,161.33,146.88,161.51,146.77,161.68z"/>
		<path class="st2" d="M142.15,150.78c0.49,0.99,0.94,1.53,0.98,2.1c0.02,0.35-0.6,0.73-0.94,1.1c-0.35-0.52-0.86-1-1-1.57
			C141.1,152.08,141.63,151.6,142.15,150.78z"/>
		<path class="st2" d="M81.12,129c4.94,0.04,9.06,0.6,12.18,4.18c1.15,1.32,0.83,1.94-0.51,2.58c-2.82,1.35-5.24,0.05-6.97-1.8
			c-2.17-2.33-4.82-2.82-7.51-2.67c-2.33,0.13-4.6,1.21-6.9,1.86c-0.87,0.24-1.74,0.44-2.62,0.65c0.59-0.76,1.04-1.75,1.81-2.24
			C73.98,129.37,77.85,129.15,81.12,129z"/>
		<path class="st2" d="M82.17,136.63c2.25,0.7,4.5,1.41,7.19,2.24C86.47,140.04,83.47,139.15,82.17,136.63z"/>
		<path class="st2" d="M160.53,129.4c-4.79,0.52-9.69,1.09-14.61,1.57c-1.89,0.18-3.33,0.87-4.79,2.21
			c-1.58,1.44-3.71,2.38-5.74,3.19c-0.66,0.27-1.76-0.55-2.66-0.87c0.35-0.71,0.54-1.57,1.07-2.12c2.58-2.69,5.92-3.95,9.47-4.71
			c4.73-1.02,9.49-1.53,14.27-0.4C158.68,128.54,159.76,129.1,160.53,129.4z"/>
		<path class="st2" d="M138.52,138.86c2.25-0.98,4.32-1.89,6.5-2.85C144.22,138.88,141.12,140.3,138.52,138.86z"/>
	</g>
</g>
</svg>
